<svg xmlns="http://www.w3.org/2000/svg" xmlns:xlink="http://www.w3.org/1999/xlink" width="320.814" height="326.458" viewBox="0 0 320.814 326.458"><defs><clipPath id="a"><rect width="320.814" height="326.457" fill="none"/></clipPath></defs><g transform="translate(0 0)" clip-path="url(#a)"><path d="M112.02,176.511c-1.764-.182-1.8-.787-1.68-2.846a19.37,19.37,0,0,1,2.475-7.787c-.247-1.389.852-2.347,1.159-3.568a15.57,15.57,0,0,1,1.012-2.371c.217-.5.461-.99.654-1.5a34.046,34.046,0,0,1,2.217-5.793c1.012-1.677,1.623-3.492,2.464-5.218a45.435,45.435,0,0,0,2-5.044c.41-1.18.548-2.464,1.012-3.62s.673-2.569,2.021-3.107c-.29-1.069-.532-2.092-.855-3.088-.106-.326-.434-.575-.648-.868-.3-.4-.79-.787-.836-1.218-.152-1.427-1.069-1.943-2.271-2.236a7.164,7.164,0,0,1-2.971-1.055,7.188,7.188,0,0,0-2.374-.646c-1.9-.526-3.788-1.14-5.711-1.585a24.348,24.348,0,0,0-2.485-.041c-.955-.111-1.883-.415-2.835-.564-.529-.084-1.085-.005-1.628-.038-2.26-.13-4.52-.277-6.781-.412-1.085-.062-2.168-.136-3.253-.157-1.142-.022-2.285.016-3.427.022q-2.527.012-5.058.011c-2.2,0-4.409-.027-6.612-.005-1.492.014-2.985.09-4.48.136a.941.941,0,0,1-.372-.024c-1.441-.57-2.849-.179-4.271.1a9.952,9.952,0,0,1-1.367.106c-.7.043-1.4.054-2.092.128-2.035.217-4.065.507-6.1.681-2.442.209-4.9.266-7.334.5a16.243,16.243,0,0,0-4.233.811,34.5,34.5,0,0,1-6.7,1.476,17.447,17.447,0,0,0-5.549,2.125c-.345.187-.811.141-1.169.309-1.593.752-3.451.83-4.952,1.652-1.715.936-3.63.993-5.367,1.728a8.807,8.807,0,0,1-2.179.38,8.689,8.689,0,0,0-4.531,2.149,9.56,9.56,0,0,1-1.815,1.026,29.5,29.5,0,0,0-2.9,1.574c-1.14.792-2.171,1.742-3.248,2.626-.469.385-.939.776-1.4,1.159.849,1.359-.2,2.453-.4,3.641-.152.906-.4,1.8-.624,2.694-.125.478-.347.928-.448,1.408-.187.9-.342,1.81-.459,2.721-.062.475.024.969-.027,1.446-.231,2.046-.54,4.086-.724,6.135-.209,2.331-.119,4.71-.537,7-.3,1.612.25,3.153-.068,4.7-.38,1.869.057,3.693.236,5.527a29.572,29.572,0,0,0,.722,3.934,48.179,48.179,0,0,0,1.335,4.743A22.979,22.979,0,0,0,8,189.179c.347.673.676,1.354,1.02,2.03.095.187.217.361.326.54.307.507.648,1,.912,1.522.573,1.145,1.115,2.3,1.65,3.468a3.563,3.563,0,0,1,.3.979,6.046,6.046,0,0,0,.838,2.751,14.379,14.379,0,0,1,1.039,2.982,13.4,13.4,0,0,0,.977,1.992,30.572,30.572,0,0,1,1.579,3.077c.76,1.745,2.076,3.093,2.868,4.783a10.569,10.569,0,0,0,1.658,2.065,6.5,6.5,0,0,1,.521.54c2.133,3.2,4.613,6.14,6.311,9.659a16.308,16.308,0,0,0,4.5,6.015,11.68,11.68,0,0,0,3.213,1.875c1.088.388,2.55.971,2.759,2.586a6.659,6.659,0,0,0,.366,1.15,5.517,5.517,0,0,1-1.644.442,16.606,16.606,0,0,1-2.518-.464c-.092-.016-.176-.073-.266-.09a6,6,0,0,1-3.405-1.989,10.129,10.129,0,0,0-1.861-1.289A7.374,7.374,0,0,1,26.7,231a43.171,43.171,0,0,0-2.515-3.8c-.187-.28-.317-.6-.488-.89-.659-1.121-1.3-2.255-2-3.351-.784-1.235-1.571-2.472-2.445-3.641-.814-1.093-1.785-2.073-2.613-3.161-.635-.836-1.167-1.75-1.72-2.645-.855-1.386-1.753-2.754-2.515-4.189-.686-1.294-1.229-2.667-1.815-4.013-.548-1.267-1.15-2.518-1.579-3.826-.345-1.058-.445-2.2-.689-3.291-.271-1.229-.583-2.447-.874-3.674a1.707,1.707,0,0,0-.933-1.264,3.6,3.6,0,0,1-1.91-2.111,36.711,36.711,0,0,0-1.65-3.3,14.94,14.94,0,0,1-.535-1.956c-.418-1.386-.977-2.74-1.264-4.151A43.616,43.616,0,0,1,0,172.24c.043-2.331.374-4.653.573-6.981.206-2.439.4-4.881.608-7.32.193-2.276.26-4.577.64-6.824a21.718,21.718,0,0,1,1.446-3.959c.32-.833.64-1.669.993-2.491.269-.627.624-1.216.866-1.85a1.625,1.625,0,0,0,.041-1,3.314,3.314,0,0,1,1.367-3.552,3.083,3.083,0,0,0,.879-.787,8.03,8.03,0,0,1,3.088-2.344c.6-.3,1.126-.746,1.7-1.093a47.73,47.73,0,0,1,4.317-2.51,30.347,30.347,0,0,1,4.073-1.313c1.034-.309,2.078-.575,3.12-.863.2-.057.407-.114.608-.184,1.454-.518,2.9-1.058,4.36-1.557.933-.32,1.9-.535,2.825-.885,1.452-.556,2.868-1.2,4.314-1.772a12,12,0,0,1,1.693-.461c2.114-.483,4.222-.982,6.344-1.419,2.735-.559,5.473-1.112,8.227-1.568a35.021,35.021,0,0,1,3.747-.231c2.076-.122,4.157-.179,6.222-.391,1.555-.157,3.088-.537,4.637-.771.54-.081,1.1-.014,1.65-.043,1.655-.087,3.31-.25,4.965-.266s3.335.152,5,.157c1.549.005,3.1-.128,4.651-.144,1.148-.011,2.3.109,3.443.1,1.623-.011,3.248-.2,4.862-.106,2.675.149,5.345.464,8.018.7a16.529,16.529,0,0,0,2.1.1,32.941,32.941,0,0,1,7.342.73c1.3.233,2.64.345,3.929.7,1.479.407,2.963.809,4.431,1.251s2.9.923,4.36,1.392a2.884,2.884,0,0,0-1.85-2.835,3.653,3.653,0,0,1-.879-.719c-.182-.168-.307-.45-.516-.535a8.935,8.935,0,0,1-2.586-2.247,4.169,4.169,0,0,0-1.94-.982,4.067,4.067,0,0,1-2.271-.89c-.651-.624-1.574-.955-2.266-1.547a9.345,9.345,0,0,1-2.162-2.3,1.587,1.587,0,0,1,.9-2.534,2.844,2.844,0,0,1,2.906.906,6.272,6.272,0,0,0,3.118,2.073,2.429,2.429,0,0,1,1.218.643,2.876,2.876,0,0,0,2.3,1.164,7.584,7.584,0,0,1,1.555.372c-.3-.784-.638-1.647-.955-2.515-.355-.966-.749-1.924-1.02-2.911a5.909,5.909,0,0,0-3.107-3.495,18.743,18.743,0,0,1-3.2-2.282,14.7,14.7,0,0,1-1.758-2.434c-.065-.095-.171-.16-.486-.2.041.388.1.776.119,1.164.035.849.054,1.7.071,2.548.005.3-.03.61-.027.914a2.678,2.678,0,0,1,.033.743,4.978,4.978,0,0,1-.852,1.973c-.206.2-1.18-.231-1.718-.529a3.435,3.435,0,0,1-1.864-3.37,26.667,26.667,0,0,0-.591-2.806,58.426,58.426,0,0,1-.334-6.04,15.678,15.678,0,0,0,0-3.706c-.244-1.121.445-2.437.673-3.674a2.1,2.1,0,0,0-.03-1.292,19.89,19.89,0,0,1-2.065-6.46c-.364-2.068-.83-4.116-1.194-6.184-.274-1.555-.464-3.126-.678-4.691-.247-1.8-.507-3.606-.7-5.416a16.842,16.842,0,0,1,.014-2.219c.046-1.755.136-3.511.141-5.264.005-1.511-.111-3.025-.109-4.537,0-.86.171-1.718.206-2.58a2.273,2.273,0,0,0-.185-1.237c-.478-.752-.8-1.612-1.831-1.964a2.014,2.014,0,0,1-.982-1.46c-.187-1.625-.507-3.375.48-4.816A7.429,7.429,0,0,0,98.541,37.2a1.34,1.34,0,0,1,1.449-1.066,3.485,3.485,0,0,0,2.141-.9,25.426,25.426,0,0,1,3.4-2.4,19.257,19.257,0,0,1,3.606-1.05c.147-.041.345.011.448-.071,1.316-1.009,3.017-.833,4.442-1.443a14.7,14.7,0,0,1,4.651-1.15c.635-.054,1.207-.646,1.856-.828,1.243-.347,2.683-.3,3.742-.928a11.374,11.374,0,0,1,3.94-1.175c2.116-.4,4.246-.733,6.376-1.074.928-.147,1.875-.185,2.792-.374,1.3-.269,2.569-.676,3.869-.944.833-.174,1.7-.206,2.73-.326a11.522,11.522,0,0,1,1.522-2.119,3.514,3.514,0,0,1,2.233-1.129c1.009.1,1.465-.632,2.214-.841,1.568-.434,3.126-.923,4.708-1.305a26.507,26.507,0,0,1,3.3-.559c1.959-.214,3.9-.819,5.91-.293.217.057.5-.212.757-.239,1.273-.136,2.55-.619,3.815.041a.515.515,0,0,0,.263.052c1.75-.117,3.5-.358,5.248-.323a27.031,27.031,0,0,1,5.226.591c.6.13,1.156.939,1.509,1.566.231.412-.117.893-.733.928-.3.019-.591.079-1.066.144.923,1.091,1.481,2.162.307,3.18-.578.5-2.168.073-2.613-.551-.567-.8-.4-1.311.833-2.48H166.981c-.022.065-.041.13-.062.2.179.068.361.13.537.206a10.536,10.536,0,0,1,1.9.849,2.1,2.1,0,0,1-.016,3.571c-.3.236-.491.613-.79.857a4.406,4.406,0,0,1-1.335.9,45.4,45.4,0,0,1-5.606,1.568,3.229,3.229,0,0,1-3.389-4.4,4.8,4.8,0,0,1,1.945-1.614c1-.586,2.087-1.017,3.1-1.739-.9,0-1.807-.068-2.7.016a20.32,20.32,0,0,1-3.316.469,24.9,24.9,0,0,0-3.6.353c-.947.06-1.9.076-2.844.163a3.676,3.676,0,0,0-1.159.315c-.6.274-1.137.383-1.533-.364-1.989,3.237-3.1,6.572-2.249,10.321a1.881,1.881,0,0,1-2.561-.616,1.224,1.224,0,0,0-1.465-.431c-1.731.437-3.484.8-5.2,1.278-2.29.629-4.553,1.351-6.835,2.005-.828.236-1.707.315-2.513.6-1.359.483-2.681,1.064-4.013,1.623-.762.317-1.519.648-2.26,1.012-.819.4-1.6.9-2.434,1.259-1.311.562-2.645,1.085-3.994,1.549-2.181.749-4.412,1.367-6.569,2.184a30.3,30.3,0,0,0-3.356,1.8c-.293.157-.613.26-.955.4.738.453,1.324.863,1.951,1.191.944.491,1.962.855,2.854,1.422.355.225.486.841.667,1.3a3.854,3.854,0,0,1,.155.836c.209,1.405,1.454,1.91,2.287,2.806,1.566,1.688,3.59,2.219,5.579,2.949a1.7,1.7,0,0,1,.423.187q1.579,1.14,3.145,2.3c.695.51,1.281,1.05.6,1.989-.076.106-.033.3-.043.434.933.5,1.631-.1,2.393-.4a5.2,5.2,0,0,1,1.058-.187,3.417,3.417,0,0,1,.022,1.074,47.81,47.81,0,0,0-1.7,5.53c-.255,1.49-.89,2.811-1.237,4.238-.128.537-.155,1.1-.236,1.7.524-.179.942-.3,1.343-.464A1.055,1.055,0,0,0,123.7,70.2a9.156,9.156,0,0,1,1.327-5.049c.336-.594.67-1.191.979-1.8.809-1.6,2.624-1.685,3.885-2.607a4.419,4.419,0,0,1,1.4-.624c.543-.152,1.121-.176,1.677-.288.692-.138,1.37-.35,2.068-.45.98-.141,1.973-.19,2.955-.317a32.183,32.183,0,0,1,3.839-.518,27.768,27.768,0,0,1,4.249.445c.876.133,1.8.258,2.276,1.224.081.168.434.206.667.293.912.342,1.831.667,2.735,1.026a.612.612,0,0,1,.312.4,2.692,2.692,0,0,1-1.5,2.358c-2.049.714-4.173.545-6.284.64-2.922.13-5.842.573-8.761.559-1.842-.008-3.771.529-5.587-.453-.795-.431-1.395.252-1.476,1.183a15.482,15.482,0,0,1-.7,2.662c-.038.138-.081.277-.155.529.955-.225,1.8-.48,2.667-.616,2.377-.377,4.767-.665,7.136-1.069a6.14,6.14,0,0,0,2.879-.757c.526-.383,1.357-.326,2.024-.548.906-.3,1.788-.676,2.681-1.017.087-.035.182-.106.26-.09,2.287.483,4.477-.619,6.772-.4a20.463,20.463,0,0,0,3.59-.383c1.975-.168,3.953-.3,5.931-.423A15.259,15.259,0,0,1,165.035,64c2.087.364,3.937-.711,5.923-.705,1.563.005,3.126.263,4.689.4.434.038.871.06,1.308.081a45.818,45.818,0,0,0,7.955.027,27.487,27.487,0,0,1,3.872-.095,44.075,44.075,0,0,0,5.31.138c1.544-.163,2.928.35,4.4.45,2.141.144,4.282.317,6.417.548,1.313.144,2.616.415,4.119.662-.57-1.294-1.476-2.434-1.473-3.573,0-1.414-2.038-1.853-1.286-3.383-.6-1.055-1.639-1.772-2.013-3.061a15.65,15.65,0,0,0-1.717-3.164l-5.484,2.336c.9.25,1.956.475,2.963.844a17.425,17.425,0,0,1,2.266,1.15.517.517,0,0,1,.258.372c-.157,1.671,1.519,2.556,1.723,4.054.09.667.084,1.346.125,2.081-1.2-.16-1.709-1.131-2.369-1.888-.705-.809-1.216-1.9-2.081-2.431a11.909,11.909,0,0,0-3.4-.99,4.008,4.008,0,0,0-1.183-.068c-.369.019-.711-.174-1.042.415-.263.461-1.148.6-1.78.819-.548.19-1.137.266-1.7.429a9.53,9.53,0,0,1-1.091.412,8.271,8.271,0,0,1-2.542.241,10.774,10.774,0,0,0-4.339-.049c-1.438.342-2.849.792-4.282,1.161a7.349,7.349,0,0,1-1.723.282,1.636,1.636,0,0,1-1.845-1.245,1.37,1.37,0,0,1,.236-1.036,20.285,20.285,0,0,1,1.663-1.625,24.975,24.975,0,0,0-4.048.049,15.667,15.667,0,0,1-3.69-.054c-1.2-.076-2.415-.043-3.622-.1-.507-.022-1.009-.182-1.517-.209-1.2-.06-2.4-.087-3.606-.114-.711-.014-1.424-.011-2.138,0-1.677.016-3.356.073-5.033.049-1.1-.016-2.206-.166-3.313-.212-.459-.019-.923.1-1.386.117-.673.022-1.346.008-2.019,0-.182,0-.364-.049-.545-.041-.705.03-1.411.084-2.119.109-.912.03-1.826.035-2.74.054-1.324.027-2.656-.014-3.972.106-1.34.119-2.675-.163-4.037.3a19.1,19.1,0,0,1-3.5.377c-.746.1-1.462.437-2.211.526-1.218.144-2.45.19-3.677.233-.236.008-.64-.147-.681-.3a1.106,1.106,0,0,1,.19-.841c.893-1.161,2.339-1.126,3.565-1.563a10.225,10.225,0,0,1,1.43-.412c.806-.168,1.623-.293,2.434-.429q1.726-.285,3.449-.559c.364-.057.733-.095,1.1-.125q.92-.073,1.84-.125c.342-.019.686-.005,1.028-.038.521-.046,1.039-.117,1.56-.185a9.012,9.012,0,0,1,.923-.138c2.6-.076,5.207-.155,7.809-.2,1.514-.024,3.028.033,4.542.022.4-.005.795-.2,1.188-.19,2.434.081,4.87.225,7.3.29.958.024,1.918-.141,2.876-.152,1.017-.011,2.04.022,3.055.1.727.057,1.446.214,2.168.331.182.03.412.163.537.095,1.273-.705,2.534.043,3.79-.011,3.115-.136,6.224-.336,9.336-.529,1.631-.1,3.267-.38,4.889-.32,1.815.065,3.622.423,5.372.643a1.65,1.65,0,0,1,.876-2.282c1.435-.852,2.941-1.587,4.409-2.39a12.823,12.823,0,0,1,1.08-.716c1.416-.581,2.873-1.061,4.268-1.682.819-.364,1.538-.944,2.325-1.389a5.1,5.1,0,0,1,1.012-.364c.494-.155,1.007-.258,1.484-.448,2.352-.936,4.678-1.935,7.052-2.808a3.3,3.3,0,0,1,1.812.087c.317.079.781.51.768.76a1.621,1.621,0,0,1-.619,1.142c-1,.648-2.119,1.129-3.134,1.764a23.315,23.315,0,0,0-2.021,1.585,5.032,5.032,0,0,1,2.089,4.447,17.043,17.043,0,0,0,.752,3.568c.469,2.049.936,4.1,1.438,6.137a6.082,6.082,0,0,0,.526,1.15,9.271,9.271,0,0,1,.814,1.688c.366,1.462.624,2.952.928,4.431a1.407,1.407,0,0,0,.128.445,13.644,13.644,0,0,1,1.538,5.535c.138,1.069.212,2.149.331,3.221.008.095.133.176.206.263.1,0,.206,0,.312,0,.174-1.427.317-2.857.535-4.276.1-.629.393-1.224.51-1.853a53.3,53.3,0,0,0,.874-5.329,14.264,14.264,0,0,0-.44-2.93,22.63,22.63,0,0,1-.214-2.567c-.022-1.4.076-2.795.033-4.189-.041-1.278-.271-2.553-.293-3.834-.024-1.422.165-2.846.133-4.268-.041-1.723-.35-3.449-.3-5.166a14.375,14.375,0,0,0-.239-3.544c-1.3-.1-2.5-.163-3.7-.312-.271-.033-.749-.437-.716-.559.119-.445.315-1.042.665-1.216.912-.453,1.571-1.5,2.8-1.273.133.024.32-.174.469-.288a16.549,16.549,0,0,1,4.908-2.363c.4-.136.695-.589.974-1.017-1.427-.353-2.746-1.093-4.159-.185-.252.163-.657.076-.977.16a4,4,0,0,0-1.161.429,1.207,1.207,0,0,1-1.718-.795.725.725,0,0,0-.157-.068c-1.465-.225-2.933-.437-4.4-.676-.51-.084-1-.269-1.514-.347-1.528-.231-3.063-.4-4.588-.651-2.019-.328-4.051-.627-6.04-1.091-1.514-.353-2.944-1.091-4.466-1.389-1.118-.22-2.152-.917-3.481-.407a7.225,7.225,0,0,1-3.145,0,11.58,11.58,0,0,0-4.55.06,8.16,8.16,0,0,1-1.544-.005c-.822.068-1.639.269-2.458.288-.415.008-.83-.334-1.259-.374a11.5,11.5,0,0,0-1.216.174,2.805,2.805,0,0,1-1.422-.152c-.5-.307.03-.7.128-1.085.323-1.294,1.492-1.989,2.016-3.139a4.278,4.278,0,0,0,.4-2.686,7.773,7.773,0,0,1-.027-2.507c.043-.3.594-.7.958-.757a1.615,1.615,0,0,1,1.628,1.416c.147.714.2,1.218,1.335.923,1.7-.44,3.541-.331,5.288-.646,1.872-.336,3.63.437,5.446.342a14.207,14.207,0,0,1,4.252.4,13.137,13.137,0,0,0,2.675.014,2.658,2.658,0,0,1,1.14.282c2.157,1.142,4.569,1.24,6.884,1.731a.578.578,0,0,0,.279-.027c1.951-.619,3.7.03,5.446.817.952.429,2.04,1.164,2.922,1a4.835,4.835,0,0,1,3.3.629c1.392.676,2.957.988,4.42,1.53a1.253,1.253,0,0,1,.648.849c.185,1.178.266,2.371.4,3.7,1.454.613,1.728,2.089,1.506,3.541a3.067,3.067,0,0,1-3.15,2.787c.735.692,1.324,1.226,1.883,1.788a.792.792,0,0,1,.247.543,7.691,7.691,0,0,0,.822,4.306,3.478,3.478,0,0,1,.071,1.829,11.781,11.781,0,0,0,.621,4.534,8.431,8.431,0,0,1-.081,4.292,18.284,18.284,0,0,0-.48,6.325c.035.792.288,1.582.252,2.363-.035.689-.4,1.354-.5,2.049-.263,1.886-.431,3.782-.7,5.668-.176,1.245-.456,2.475-.689,3.712-.046.244-.09.494-.157.733-.288.982-.608,1.956-.868,2.947-.385,1.473-.638,2.985-1.118,4.423a16.875,16.875,0,0,1-1.707,3.793c-.659,1.028-1.066,2.331-2.374,2.884-.3.13-.445.594-.719.841a3.019,3.019,0,0,1-.743.369,2.928,2.928,0,0,1-.26-.866c.014-.591.119-1.18.185-1.772l-.345-.06c-.084.323-.171.643-.252.966-.2.773-.38,1.544-1.4,1.625a.635.635,0,0,0-.4.331c-.532,1.031-1.074,2.057-1.538,3.12a6.461,6.461,0,0,0-.377,1.6c-.149.969-.193,1.959-.4,2.917a36.292,36.292,0,0,1-1.2,4.762,20.557,20.557,0,0,0-1.359,4.68,13.229,13.229,0,0,1-1.148,3.02c.35-.119.594-.125.716-.252.952-1,1.9-1.992,2.806-3.031a5.116,5.116,0,0,1,1.818-1.37c.488-.225.811-.947,1.066-1.511.562-1.251,1.017-2.548,1.552-3.809.393-.933.9-1.821,1.251-2.762.2-.532.095-1.178.309-1.7.518-1.27,1.134-2.5,1.723-3.739.3-.621,1.414-.847,2.331-.488a1.216,1.216,0,0,1,.8,1.566c-.19.99-.3,2-.45,3a.91.91,0,0,1-.049.277c-.537,1.077-1.123,2.133-1.609,3.232-.3.667-.391,1.416-.654,2.1-.54,1.4-1.131,2.776-1.7,4.162-.046.114-.071.239-.125.434.814.236.608.746.491,1.416a2.832,2.832,0,0,1-2.2,2.4,5.692,5.692,0,0,0-2.911,2.141c-.624.871-2.046,1.172-3.118,1.723a.955.955,0,0,1-.217.079c-.575,2.827,1.392,4.488,2.575,6.5-1.492.665-2.957,1.384-4.287.665.771,1.538.51,2.225-.952,2.591-.214,1.24.556,2.111,1.161,3.023.44.662.342,1.183-.418,1.476a2.54,2.54,0,0,1-2.629-.472c-.29-.233-.548-.5-.678-.627a14.28,14.28,0,0,0-1.313,1.728,4.206,4.206,0,0,0-.366,1.5A9.664,9.664,0,0,1,206,135.879c-1.292,1.785-2.567,3.584-3.8,5.41-.469.695-.73,1.528-1.194,2.225-.535.8-.592,2.051-1.9,2.182-.711,1.473-2.526,2.04-3.033,3.693a2.416,2.416,0,0,1-.564.733c-.165.185-.442.315-.521.524a3.43,3.43,0,0,1-2.331,2.333c-.64.19-1.18.974-1.6,1.6-.947,1.433-2.352,2.407-3.457,3.658a12.8,12.8,0,0,1-2.792,2.637,25.724,25.724,0,0,1-4.39,2.732c-.239.092-.38.45-.619.54a2.687,2.687,0,0,1-1.275.225c-.233-.038-.4-.488-.7-.9-.355.307-.822.705-1.289,1.1-.092.079-.171.2-.277.236-1.357.415-2.705.86-4.081,1.2a22.669,22.669,0,0,1-2.477.336c-1,.136-2,.233-3.012.271a39.734,39.734,0,0,1-4.539-.556c-.155-.011-.383-.076-.456,0-.936.958-1.688.166-2.5-.22a10.59,10.59,0,0,0-2.287-.92,1.843,1.843,0,0,1-1.576-1.085c-.114-.263-.57-.421-.9-.543-1.251-.461-2.54-.833-3.766-1.351-.931-.391-1.785-.95-2.74-1.471a3.684,3.684,0,0,0,.866,2.9,3.376,3.376,0,0,1,.537,1.172c.553,1.378,1.1,2.762,1.652,4.14a4.44,4.44,0,0,1,.184.423c.3,1.064.589,2.133.9,3.191.353,1.188.681,2.388,1.112,3.546.4,1.093.974,2.125,1.4,3.213a21.341,21.341,0,0,1,1.093,3.289,16.746,16.746,0,0,1,.578,4.444c-.1,1.6.887,1.56,1.859,1.788a1.7,1.7,0,0,1,.676.271c1.083.863,2.485.923,3.647,1.438a8.221,8.221,0,0,0,4.317.442c.605-.046,1.232.2,1.837.152a16.679,16.679,0,0,0,6.072-1.845,23.659,23.659,0,0,1,2.594-.871,7.724,7.724,0,0,0,.941-.507c1.462-.765,2.914-1.544,4.39-2.279.792-.4,1.623-.716,2.431-1.085.643-.3,1.278-.619,1.869-.906.22.3.426.578.73.988.874-1.59,1.633-3,2.42-4.4.374-.659.83-1.273,1.186-1.943a6.212,6.212,0,0,0,.377-1.2c.027-.09,0-.236.057-.269,1.066-.67.966-1.964,1.525-2.911a19.224,19.224,0,0,0,1.2-3.1c.062-.171.065-.369.138-.535.765-1.745,1.571-3.473,2.3-5.234a18.506,18.506,0,0,0,1.316-3.769,35.906,35.906,0,0,1,1.9-5.47c.665-1.926,1.091-3.907,1.677-5.844a22.061,22.061,0,0,0,.632-2.873,1.165,1.165,0,0,1,1.349-1.083c.705.024,1.161.3,1.088,1.161-.144,1.731-.1,3.484-.355,5.2-.206,1.408-.743,2.765-1.088,4.159-.149.6-.076,1.21-.651,1.728-.3.271-.163,1-.293,1.5a15.321,15.321,0,0,1-.562,1.563c-.252.643-.556,1.27-.773,1.924-.412,1.248-.743,2.521-1.175,3.761-.2.57-.589,1.072-.836,1.628-.236.532-.41,1.093-.6,1.647a18.317,18.317,0,0,1-.923,2.7,7.879,7.879,0,0,0-1.24,3.134,4.29,4.29,0,0,1-.863,1.72c-.258.407-.711.705-.912,1.129-.616,1.316-1.115,2.689-1.742,4a17.11,17.11,0,0,1-1.27,1.97,14.72,14.72,0,0,0-2.616,6.382,2.424,2.424,0,0,1-1.2,1.973c-1.628.985-2.081,2.795-2.673,4.431a4.842,4.842,0,0,1-1.077,2.333,8.364,8.364,0,0,0-1.321,2.494c-.719,1.441-1.465,2.868-2.135,4.33a20.42,20.42,0,0,1-.874,2.409c-.909,1.449-1.137,3.107-1.718,4.642a42.651,42.651,0,0,0-1.693,5.654c-.152.667-.288,1.338-.45,2-.665,2.683-2.176,4.982-3.392,7.413-.057.111-.111.263-.209.307a28.671,28.671,0,0,1-3.424,1.435,1.456,1.456,0,0,1-1.65-.8c-.385-.727-1.313-1.186-1.077-2.225.019-.087-.149-.258-.266-.331a1.412,1.412,0,0,1-.467-2.1,1.328,1.328,0,0,0,.011-1.373c-.692-1.34-1.292-2.738-2.1-4-.765-1.191-1.8-2.206-2.624-3.362-.518-.73-.847-1.59-1.311-2.363-.355-.589-.79-1.129-1.188-1.693-.019-.024-.052-.041-.062-.068-.518-1.045-1.028-2.092-1.555-3.131-.179-.355-.418-.684-.591-1.042-.239-.5-.442-1.007-.657-1.511-.106-.25-.19-.51-.3-.76-1.164-2.61-2.447-5.15-2.116-8.2a22.848,22.848,0,0,0-.4-4.32c-.076-.887-.068-1.78-.125-2.667a2.3,2.3,0,0,0-.2-.928c-.583-1.069-.429-1.707.689-2.336a23.747,23.747,0,0,1-1.793-3.006c-.982-2.339-1.823-4.737-2.711-7.117-.806-2.165-1.68-4.311-2.363-6.515-.339-1.1-1.137-2.13-.627-3.462.133-.353-.445-.966-.67-1.473a7.611,7.611,0,0,1-.553-1.411c-.187-.866-.252-1.755-.437-2.621s-.532-1.728-.662-2.613a8.188,8.188,0,0,1,.214-1.929c-.548-.594-1.313-1.435-2.095-2.263a.784.784,0,0,0-.461-.269c-.771-.011-1.058-.472-1.251-1.134a1.584,1.584,0,0,0-.578-.795,4.824,4.824,0,0,1-2.07-2.526,13.046,13.046,0,0,0-1.392-2.469.46.46,0,0,0-.3-.2c-1.316-.079-2.095-1.118-3.085-1.758-.393-.252-.529-.868-.857-1.256-.958-1.142-1.989-2.222-2.917-3.383a25.813,25.813,0,0,1-1.481-2.3c-.2.225-.442.374-.494.57-.5,1.891-.936,3.8-1.457,5.682a24.248,24.248,0,0,0-.879,2.336c-.339,2.016-1.405,3.733-2.124,5.592-.269.692-.57,1.373-.825,2.07a57.919,57.919,0,0,0-2.29,6.542c-.41,1.769-1.357,3.3-1.758,5-.377,1.579-1.386,2.909-1.465,4.61a9.249,9.249,0,0,1-1.1,2.67c-.244.594-.434,1.21-.6,1.671,1.547-.155,3.166-.2,4.737-.5,1.424-.277,2.854.041,4.189-.1a35.737,35.737,0,0,1,9.936.45c3.042.521,6.118,1.5,8.186,4.159a3.792,3.792,0,0,1,.407,1.047c-.51.114-1.091.442-1.525.3a31.259,31.259,0,0,1-4.379-1.433,12.775,12.775,0,0,0-3.527-.635c-.09-.014-.22.054-.277.011-1.112-.866-2.437-.3-3.649-.5a30.49,30.49,0,0,0-4.7-.247c-1.229-.008-2.456.152-3.685.179-.746.016-1.5-.16-2.236-.111-1.281.087-2.553.288-3.831.421-.665.068-1.435.109-1.639-.676-.106-.4.239-.925.369-1.362m18.735-69.341c.014.1.024.2.035.3,1.224,0,2.447,0,3.671,0,.057,0,.109-.06.168-.076,1.373-.38,2.749-.743,4.113-1.145,1.11-.326,2.206-.692,3.3-1.05,1.047-.339,2.073-.773,3.142-1.017,1.028-.233,1.84.5,2.04,1.644.163.933-.26,1.487-1.33,1.756a3.03,3.03,0,0,0-.5.22,22.8,22.8,0,0,1-2.228,1.053c-2.035.722-4.084,1.419-6.151,2.04a10.714,10.714,0,0,1-2.656.412c-1.509.057-3.023.016-4.534-.027-2.279-.068-4.556-.171-6.875-.26a22.042,22.042,0,0,0,1.11,3.112,3.294,3.294,0,0,1,.1,2.884,1.572,1.572,0,0,0,.092,1.376,20.659,20.659,0,0,1,1.031,2.445c.4,1.259.57,2.6,1.055,3.815.833,2.073,2.054,4.01,2.7,6.127.578,1.888,1.661,3.478,2.385,5.261a11.807,11.807,0,0,0,1.05,2.518c.8,1.1,1.872,2,2.727,3.069.95,1.183,2.447,1.973,2.7,3.676.016.111.241.182.35.29,1.145,1.134,2.282,2.276,3.435,3.4.233.225.556.361.809.57.431.361,1.053.676,1.213,1.14a3.016,3.016,0,0,0,1.359,1.666,6.736,6.736,0,0,1,.836.746,23.318,23.318,0,0,0,2.458,2.157,18.456,18.456,0,0,0,2.678,1.267c.117-.749.225-1.647.4-2.534.168-.847.933-.942,1.549-.882.667.065,1.509.2,1.552,1.169.043.893,0,1.788.019,2.681a1.859,1.859,0,0,0,.141.714c.2.442.456.86.689,1.289.022-.057.041-.117.06-.174l2.594,1.365a3.1,3.1,0,0,1,.231-.979c.22-.347.54-.79.887-.866.931-.2,1.4.369,1.446,1.446.062,1.522.825,2.808,2.4,2.024.334-.971-.231-2.55,1.62-2.529.879.011,1.359.933,1.424,2.675a5.3,5.3,0,0,1,1.1.014c.825.174,1.612.41,2.314-.364.147-.16.594-.081.9-.054.594.052,1.186.144,1.769.22a8.167,8.167,0,0,1,.1-1.625c.225-.779.5-1.528,1.549-1.612.936-.076,1.072.5,1.229,1.178a2.7,2.7,0,0,0,.372.724c1-.065,1.878-.119,2.507-.16.125-1.661.193-3.3.391-4.933a1.31,1.31,0,0,1,1.33-1.316,1.885,1.885,0,0,1,2.068,2.3,14.847,14.847,0,0,0-.011,1.593c.095.011.187.024.279.035.3-.345.583-.708.914-1.026s.692-.57,1.064-.874a3.345,3.345,0,0,1-.885-4.311,2.294,2.294,0,0,1,1.3-.711c1.045-.231,1.541-.033,2.369,1.973.583-.86,1.126-1.606,1.609-2.39a5.111,5.111,0,0,1,1.34-1.316,8.328,8.328,0,0,0,2.214-2.664,7.916,7.916,0,0,1,2.154-2.757,11.981,11.981,0,0,0,1.75-1.823c.605-.733,1.134-1.53,1.707-2.293a34.624,34.624,0,0,0,2.8-3.79,41.073,41.073,0,0,0,1.937-4.7c.431-1.083.8-2.2,1.3-3.248.545-1.164,1.207-2.271,1.8-3.411a3.731,3.731,0,0,0,.358-.961c.125-.6.182-1.221.29-1.829q.305-1.689.638-3.373a12.67,12.67,0,0,0,.345-1.718,19.749,19.749,0,0,1,1.536-6.43c.309-.765,1-1.6.866-2.276-.328-1.612.657-2.808.95-4.2.4-1.891,1.08-3.72,1.639-5.576-1.373.939-2.529,2.027-3.758,3.023a15.168,15.168,0,0,1-4.279,2.512c-1.812.67-3.6,1.411-5.394,2.122a3.8,3.8,0,0,0-.692.279c-1.726,1.121-3.761,1.15-5.676,1.563a16.867,16.867,0,0,1-3.3.2,24.364,24.364,0,0,1-3.831-.095c-1.639-.236-3.24-.711-4.865-1.053-1.8-.38-3.489-1.112-5.31-1.487-2.727-.564-5.391-1.343-8.224-1.137-2.209.16-4.423.255-6.675.38-.247,1.213-.48,2.336-.7,3.459-.315,1.628-.567,3.272-.947,4.887-.225.961.274,2.054-.914,2.89-.757.529-1.121.467-1.294-.176a15.178,15.178,0,0,1-.754-4.311,43.573,43.573,0,0,1,.885-5.636c-.277.106-.556.212-.836.32-1.954.776-2.811-.453-3.055-2.019-.109-.7.263-1.121,1.012-1.321,1.351-.358,2.673-.83,4-1.273.155-.052.364-.19.391-.32.326-1.639.57-3.3.963-4.919a2.314,2.314,0,0,1,1-1.2,1.091,1.091,0,0,1,1.034.252,4.4,4.4,0,0,1,.334,1.864c-.073,1.237-.285,2.469-.456,3.856.819-.1,1.6-.239,2.393-.285,1.576-.09,3.153-.155,4.729-.184a18.528,18.528,0,0,1,3.685.081c1.84.345,3.622.99,5.448,1.424,1.937.464,4,.57,5.82,1.308,2.062.836,4.162.738,6.249.917a9.819,9.819,0,0,0,5.153-.847,65.429,65.429,0,0,1,6.346-2.214c.488-.168.936-.461,1.424-.629a10.776,10.776,0,0,0,4.621-2.947,13.976,13.976,0,0,1,1.617-1.661c.8-.638,1.728-1.123,2.545-1.745a25.264,25.264,0,0,0,2.209-1.929,2.151,2.151,0,0,0,.559-.979,9.975,9.975,0,0,1,.374-1.97,3.423,3.423,0,0,1,1.4-1.37c.64-.339,1.454-1.365,1.069-1.959-.874-1.349-.106-3.169-1.367-4.36a.244.244,0,0,1-.068-.171c.1-1.582-.836-2.873-1.2-4.322-.228-.9-.44-1.8-.7-2.678a30.359,30.359,0,0,0-1.02-3.044,2.158,2.158,0,0,0-.952-1.031,20.683,20.683,0,0,0-2.711-1.039,11.452,11.452,0,0,0-2.325-.567c-2.835-.288-5.676-.516-8.517-.743-2.616-.212-5.237-.393-7.855-.583a5.314,5.314,0,0,0-.657.027c-1.476.062-2.949.141-4.425.182-.657.016-1.313-.057-1.97-.065-2.016-.019-4.032-.019-6.045-.038a15.046,15.046,0,0,1-1.642-.073,13.208,13.208,0,0,0-4.789-.071,12.223,12.223,0,0,1-4.01.521,56.447,56.447,0,0,0-8.807.155,1.177,1.177,0,0,0-.442.152,4.791,4.791,0,0,1-2.909.5c-3.169-.383-6.279.464-9.418.781a.522.522,0,0,0-.179.052c-2.607,1.216-5.532,1.2-8.227,2.111a5.93,5.93,0,0,1-2.735.179,7.387,7.387,0,0,0-3.625.594c-2.683.917-5.332,1.945-8.031,2.806-.616.2-.947.453-1.031,1-.3,1.956-.548,3.921-.836,5.877-.095.665-.239,1.319-.372,1.978a7.144,7.144,0,0,0-.2.906c-.079,1.129-.119,2.26-.182,3.392-.117,2.192-.2,4.387-.374,6.574-.111,1.43-.3,2.857-.545,4.268a4,4,0,0,1-.724,2,2.514,2.514,0,0,1-1.8.521c-.342-.016-.844-.586-.939-.988-.214-.917-.936-1.75-.559-2.787l-.111-.052c-.279.79-.581,1.576-.825,2.38a.739.739,0,0,0,.209.575c1.34,1.452,2.713,2.879,4.87,2.985A2.846,2.846,0,0,1,120.3,104.8a5.877,5.877,0,0,0,2.963,1.821c.985.266,2.021.355,2.982.678.9.3,1.267-.138,1.6-.8a6.106,6.106,0,0,1,.317-.657c.64-.958,1.3-1.9,1.948-2.857.554-.814,1.074-1.655,1.669-2.439.393-.516.925-.923,1.332-1.43.988-1.232,1.91-2.518,2.919-3.731a3.544,3.544,0,0,1,1.324-.966,1.405,1.405,0,0,1,1.153.119c.206.144.266.692.187,1.009a5.24,5.24,0,0,1-.662,1.612,43.841,43.841,0,0,1-3.568,5.247,8.5,8.5,0,0,0-2.149,3.267,1.445,1.445,0,0,1-.453.551c-.358.326-.735.632-1.1.944m-19.84-23.4.323-.005a15.3,15.3,0,0,0,1.137-7.418,8.289,8.289,0,0,1,.179-2.472c.38-1.49.917-2.938,1.373-4.412a1.844,1.844,0,0,0,.024-.624,5.836,5.836,0,0,1,.619-3.877,3.88,3.88,0,0,0,.372-1.251c.426-1.78.838-3.565,1.259-5.361-.654-.307-1.506.155-2.238-.57a15.849,15.849,0,0,0-3.213-2.4,34.549,34.549,0,0,0-3.918-1.791,5.473,5.473,0,0,0-1.226-.2c.147.771.3,1.343.353,1.926.084.99.043,1.994.155,2.982.168,1.492.459,2.974.632,4.469.29,2.521.448,5.063.814,7.573.307,2.092.822,4.151,1.262,6.222a7.876,7.876,0,0,0,.331.844c.279.814.589,1.62.811,2.45.35,1.3.638,2.61.952,3.918" transform="translate(0.001 28.587)" fill="#1a1311"/><path d="M190.923,151.388c-.282.068-.605.043-.716.184-1.259,1.609-3.207,1.845-4.938,2.512-.2.076-.486.052-.6.187-1.069,1.216-2.586,1.148-3.975,1.389a23.447,23.447,0,0,1-2.8.2c-.429.022-.863-.03-1.289,0a4.2,4.2,0,0,0-.969.2,8.358,8.358,0,0,1-1.416.491c-2.632.309-5.267.573-7.9.841-.988.1-1.981.163-2.968.266-1.115.119-2.225.312-3.343.388-.952.065-1.913-.014-2.871.008-1.761.043-3.522.13-5.286.165-1.327.024-2.656.033-3.983-.011-2.4-.079-4.805-.174-7.206-.312-1.2-.068-2.388-.271-3.584-.358-2.333-.165-4.678-.212-7-.459-2.092-.225-4.16-.657-6.243-.977-.475-.073-.971-.011-1.443-.092-1.734-.3-3.454-.662-5.191-.923-.765-.114-1.56-.005-2.339-.046q-1.416-.073-2.825-.231c-1.386-.157-2.773-.32-4.151-.548-.876-.147-1.728-.431-2.6-.621-.317-.068-.678.027-.985-.068-1.24-.383-2.461-.817-3.7-1.216-1.552-.5-3.112-.979-4.664-1.484-.676-.22-1.343-.467-2-.733-.819-.331-1.609-.743-2.442-1.028-1.126-.385-2.276-.708-3.43-1.012-.993-.263-2.005-.456-3.006-.692a1.241,1.241,0,0,1-.393-.214,8.8,8.8,0,0,0-1.4-.947c-1.007-.423-2.078-.695-3.093-1.107a5.288,5.288,0,0,1-2.678-2.3,1.168,1.168,0,0,1,.847-1.7,4.522,4.522,0,0,1,1.932.092c1.115.385,2.149,1,3.245,1.441.882.358,1.81.6,2.711.912,1.449.51,2.9,1.023,4.336,1.557a44.43,44.43,0,0,1,4.835,1.693,22.234,22.234,0,0,0,3.3.9c1.568.5,3.1,1.129,4.667,1.62,1.343.423,2.713.757,4.086,1.077a17.809,17.809,0,0,0,2.244.328c1.75.179,3.508.293,5.256.494a55.5,55.5,0,0,1,7.616,1.05,37.408,37.408,0,0,0,5.123.45c1.319.147,2.613.469,3.929.64,1.27.163,2.553.236,3.831.336,1.452.117,2.9.222,4.355.331.99.073,1.983.174,2.976.217,1.883.079,3.766.168,5.649.174,2.312.005,4.626-.09,6.938-.1,1.226-.008,2.455.149,3.677.081,1-.054,1.978-.4,2.976-.488,1.94-.184,3.9-.193,5.831-.44,2.038-.258,4.043-.771,6.078-1.061a26.349,26.349,0,0,1,4.811-.369,10.116,10.116,0,0,0,3.723-.9,24.435,24.435,0,0,0,3.411-1.262,28.749,28.749,0,0,0,3.289-2.078,8.285,8.285,0,0,0,1.471-1.262,1.4,1.4,0,0,0,.383-1.028c-.228-1.1-.578-2.173-.885-3.256-.041-.147-.06-.377-.152-.415-1.319-.545-2.146-1.818-3.549-2.279-1.845-.608-3.617-1.43-5.454-2.062a36.006,36.006,0,0,0-7.261-1.666c-1.788-.225-3.544-.684-5.329-.95-1.978-.3-3.972-.478-5.958-.735-.442-.06-.863-.3-1.305-.35-1.479-.168-2.963-.285-4.444-.426a1.433,1.433,0,0,1-.545-.1c-1.484-.784-3.12-.591-4.7-.779a16.2,16.2,0,0,1-2.222-.575c-.119-.033-.233-.152-.342-.144-1.769.144-3.408-.6-5.112-.746-2.871-.244-5.766-.223-8.653-.26-2.86-.038-5.722-.027-8.582-.008-.868.008-1.734.13-2.6.179-1.188.068-2.38.095-3.568.174-1.49.1-2.979.22-4.466.347-1.8.155-3.6.336-5.4.488-1.419.117-2.843.168-4.257.317-.866.092-1.712.358-2.575.472-1.617.212-3.248.315-4.854.57-1.283.2-2.537.591-3.815.844-1.123.222-2.263.369-3.394.545-.062.011-.128-.008-.187.008-1.59.426-3.18.852-4.765,1.289-2.247.621-4.485,1.275-6.737,1.875-1.59.426-3.2.776-4.8,1.18a2.544,2.544,0,0,0-.548.347c-.491.288-1.012.459-1.4-.1-.41-.586-.038-1,.393-1.414a16.067,16.067,0,0,1,5.964-3.183c1.91-.681,3.8-1.443,5.755-1.954a70.682,70.682,0,0,1,8.2-2.049c1.468-.2,2.9-.629,4.349-.96.09-.019.168-.1.255-.111,1.7-.13,3.4-.217,5.093-.391a38.186,38.186,0,0,0,4.558-.657,22.906,22.906,0,0,1,5.28-.5,8.568,8.568,0,0,0,2.738-.464c1.655-.567,3.337-.228,5-.347,1.026-.073,2.054-.138,3.08-.152,1.064-.016,2.13.071,3.194.052s2.108-.171,3.161-.168c3.036.011,6.075.076,9.111.1.366,0,.743-.176,1.1-.138.838.092,1.666.29,2.5.4,1.53.193,3.069.3,4.594.529,2.084.307,4.168.559,6.232,1.05,2.043.488,4.187.54,6.276.849,1.967.293,3.918.7,5.885,1.012,1.519.239,3.055.393,4.58.616,1.574.233,3.142.516,4.718.752.575.087,1.161.111,1.869.174.041-.518.106-1.031.114-1.547.016-1.077.035-2.154,0-3.232-.054-1.609-.1-3.221-.247-4.824-.233-2.5-.551-5-.833-7.494-.29-2.572-.556-5.15-.882-7.722-.1-.8-.4-1.585-.54-2.385q-.5-2.861-.931-5.736c-.214-1.465-.342-2.947-.564-4.412a40.329,40.329,0,0,0-.787-4.268c-.32-1.207-.966-2.328-1.292-3.533-.673-2.51-1.169-5.063-1.861-7.567-.22-.795-.377-1.783-1.544-2.016a3.028,3.028,0,0,1-1.384-.879c-1.2-1.194-2.871-1.072-4.287-1.633a2.4,2.4,0,0,1-1.221-.9,26.476,26.476,0,0,1-1.75-3.983c-.421-1.292-.559-2.675-.893-4a1.481,1.481,0,0,0-.673-.936c-1.441-.586-2.99-.936-4.368-1.633a8.506,8.506,0,0,0-3.926-.833.585.585,0,0,1-.426-.163c-.692-.969-1.758-.735-2.716-.885-1.4-.222-2.792-.51-4.195-.716-.594-.087-1.21-.022-1.812-.057-.475-.03-.947-.1-1.422-.163-2.051-.258-4.1-.513-6.154-.779-1.443-.187-2.879-.448-4.328-.578-2.456-.225-4.922-.342-7.377-.564-1.631-.147-3.253-.4-4.878-.608-.323-.041-.646-.09-.969-.117-1.007-.087-2.013-.222-3.023-.236-1.951-.024-3.9.049-5.855.024-1.644-.022-3.283-.152-4.927-.182-.849-.014-1.707.155-2.553.111a24.845,24.845,0,0,1-3.815-.437c-.263-.057-.448-.86-.516-1.34A1.3,1.3,0,0,1,95.3,54.7c1.324-.331,2.632-.985,4.081-.317.315.147.849-.269,1.286-.288.673-.03,1.349.1,2.021.087.993-.011,1.989-.138,2.979-.119,1.3.022,2.6.16,3.907.206,1.015.035,2.038-.065,3.047.022,1.8.155,3.59.445,5.389.6a25.958,25.958,0,0,0,6.4.277,1.215,1.215,0,0,1,.369-.024c1.859.317,3.709.681,5.576.942,1.007.141,2.046.035,3.055.163,1.386.176,2.757.488,4.141.705.814.13,1.642.187,2.461.282,2.77.326,5.551.591,8.308,1.015A10.037,10.037,0,0,1,150.68,59.3c.217.1.5.266.676.2.852-.339,1.514.109,2.257.383,1.989.73,4.008,1.381,6.01,2.076a2.757,2.757,0,0,1,1.992,1.826c.421,1.606.689,3.251,1.093,4.859a15.349,15.349,0,0,0,.86,2.342,1.689,1.689,0,0,0,1.354,1,21.487,21.487,0,0,1,3.563,1.433,10.524,10.524,0,0,1,3.97,3.541,3.173,3.173,0,0,1,.5,1c.692,2.271,1.405,4.539,2.019,6.835.328,1.216.41,2.5.722,3.72.269,1.058.711,2.07,1.074,3.1a1.094,1.094,0,0,1,.076.271c.179,1.717.336,3.44.54,5.158a16.255,16.255,0,0,0,.383,1.78c.092.393.236.779.307,1.175.339,1.975.659,3.951.988,5.926l.014.092c.184,1.2.4,2.4.545,3.6.212,1.791.38,3.587.548,5.383.209,2.211.252,4.447.64,6.623a16.152,16.152,0,0,1,.174,4.979,18.464,18.464,0,0,0,.317,2.176c.011,1.37-.092,2.743-.176,4.113a.8.8,0,0,0,.665.939c1.783.567,3.563,1.15,5.31,1.815a15.9,15.9,0,0,1,2.07,1.161c.236.133.5.217.724.372a28.393,28.393,0,0,1,3.717,2.716,6.26,6.26,0,0,1,1.064,2.534,19.975,19.975,0,0,1,1.023,3.655,14.8,14.8,0,0,1-.724,6.026c-.638,2.152-1.289,4.3-1.986,6.433-.616,1.878-1.321,3.728-1.951,5.6-.4,1.175-.624,2.415-1.118,3.541-.757,1.72-1.7,3.351-2.515,5.047-.374.781-.543,1.663-.936,2.434-.532,1.042-1.2,2.019-1.791,3.033a3.988,3.988,0,0,0-.214.605c-.45,1.21-1.047,1.669-2.382,1.376-1.161-.255-1.848.529-2.749.795-.923.271-1.745.871-2.648,1.229a38.347,38.347,0,0,1-3.9,1.362c-2.068.573-4.165,1.034-6.249,1.541a37.589,37.589,0,0,1-9.076.822c-2.165-.008-4.325.423-6.525,0a24.858,24.858,0,0,0-4.889-.163c-1.568.011-3.139.157-4.708.171a25.847,25.847,0,0,1-2.58-.214c-1.264-.114-2.534-.2-3.8-.355-1.506-.182-3.014-.366-4.5-.643-1.769-.331-3.506-.852-5.28-1.121-2.179-.331-4.385-.475-6.577-.722-2.73-.3-5.448-.733-8.186-.912-2.133-.141-4.187-.648-6.276-1a24.879,24.879,0,0,1-5.207-1.009c-1.194-.48-2.5-.326-3.658-1.118A9.917,9.917,0,0,0,91.8,177.8a2.115,2.115,0,0,1-1.888-2.724c.206-1.134.971-1.65,2.021-1.172,1.427.648,3.006.8,4.417,1.544a11.171,11.171,0,0,0,3.1.784c1.954.38,3.918.708,5.88,1.061a2.256,2.256,0,0,1,.263.079,4.306,4.306,0,0,0,2.475.391c.705-.166,1.541.315,2.331.423,1.59.214,3.188.361,4.781.556.635.079,1.259.26,1.9.312,2.776.214,5.568.29,8.327.632,1.661.2,3.264.849,4.914,1.213,1.023.225,2.078.3,3.12.426,1.84.217,3.674.464,5.519.605a24.088,24.088,0,0,0,2.93-.092c.339-.014.678-.117,1.012-.1,1.6.092,3.188.233,4.783.323,1.661.09,3.326.2,4.987.2,2.721-.008,5.446-.081,8.164-.171a21.528,21.528,0,0,0,6.281-1.156,21.668,21.668,0,0,1,2.7-.543,1.515,1.515,0,0,0,.61-.212c1.452-1.123,3.27-1.142,4.917-1.671a23.28,23.28,0,0,0,2.38-.99,18.822,18.822,0,0,1,2.523-1.134,3.236,3.236,0,0,0,1.986-1.9,18.386,18.386,0,0,0,2.138-4.792c.119-.61.727-1.115,1.064-1.7a8.939,8.939,0,0,0,.754-1.566c.421-1.221.779-2.461,1.175-3.69.377-1.178.787-2.347,1.159-3.525.518-1.642,1.015-3.289,1.519-4.933.288-.933.575-1.872.89-2.9" transform="translate(125.042 92.616)" fill="#1a1311"/><path d="M145.189,126.614c-1.254.206-2.5.5-3.761.6-1.848.141-3.709.128-5.565.22-.567.027-1.129.239-1.7.26-1.739.068-3.478.073-5.215.117-1.994.052-3.989.133-5.983.166-.982.016-1.964-.068-2.947-.068-1.376,0-2.754.073-4.13.043-2.051-.041-4.105-.133-6.156-.225-1.131-.052-2.26-.128-3.389-.22-1-.084-1.989-.228-2.987-.307a18.244,18.244,0,0,1-2.626-.147c-1.389-.317-2.721-.871-4.1-1.218a30.011,30.011,0,0,0-2.968-.456c-.182-.027-.412-.011-.537-.114-1.829-1.49-4.092-1.753-6.268-2.282a16.761,16.761,0,0,1-1.788-.762c-.605-.222-1.262-.312-1.842-.578-.665-.3-1.251-.773-1.907-1.1-.9-.453-.64-1.207-.635-1.951.005-1.433.722-2.632,1.129-3.94.738-2.371,2.74-3.894,3.766-6.072.535-1.131,2.008-1.064,3.142-1.316,2.114-.469,3.961.57,5.91,1.053.779.193,1.587.263,2.377.421,1.107.222,2.206.5,3.318.7s2.238.385,3.367.494,2.3.027,3.421.2c1.9.282,3.774.768,5.679,1.034,1.574.22,3.172.258,4.762.345,1.251.071,2.5.109,3.758.13,1.357.022,2.713.019,4.073.011,2.323-.014,4.648-.016,6.97-.071,1.669-.038,3.335-.193,5-.22,1.319-.022,2.637.081,3.959.1a5.608,5.608,0,0,0,1.023-.163,17.252,17.252,0,0,1,2.019-.347c1.2-.068,2.415-.041,3.622-.062a.775.775,0,0,0,.45-.073c1.053-.914,2.371-.714,3.554-.67a16.828,16.828,0,0,0,4.542-.573c1.392-.331,2.727-.9,4.124-1.172a7.779,7.779,0,0,1,2.765.079c.323.057.705.619.792,1.009a3.793,3.793,0,0,1-.583,2.654c-1.248,2.39-2.287,4.887-3.516,7.291-.594,1.164-1.6,2.138-2.1,3.329-.724,1.72-2.266,1.929-3.677,2.279-2.583.64-5.212,1.088-7.828,1.6a12.876,12.876,0,0,1-1.3.125l-.019-.144m-28.72-2.456c1.7,0,3.389.011,5.085,0,1.883-.016,3.763-.06,5.646-.079,1.435-.016,2.871-.005,4.306-.024,1.571-.022,3.145,0,4.708-.114,2.179-.16,4.349-.431,6.523-.646,1.332-.13,2.673-.182,3.991-.391.776-.119,1.378-.847,2.3-.67a3.6,3.6,0,0,0,1.422-.133c.749-.179,1.465-.494,2.217-.643a4.346,4.346,0,0,0,3.267-2.556c.838-1.774,1.661-3.557,2.488-5.337.081-.174.144-.355.187-.464-1.21.225-2.366.521-3.538.638-1.378.138-2.778.073-4.159.2-.621.057-1.21.445-1.834.535-1.585.228-3.183.366-4.775.551-1.045.122-2.084.336-3.131.372-2.073.068-4.157.16-6.224.033-3.107-.2-6.216.353-9.328-.166a19.666,19.666,0,0,0-3.514.128c-1.685.033-3.373.022-5.058.027a11.53,11.53,0,0,1-1.264-.024c-.64-.071-1.275-.19-1.913-.293q-.985-.159-1.97-.323c-.024.1-.049.2-.071.3.589.358,1.15.939,1.777,1.026,1.2.166,1.465.969,1.777,1.869a1.644,1.644,0,0,0,.583.874,2.883,2.883,0,0,1,1.758,2.57c.109,1.777.269,1.826-1.251,2.749" transform="translate(138.173 183.559)" fill="#1a1311"/><path d="M180.311,109.489a12.97,12.97,0,0,1-2.228.863c-1.571.3-3.166.453-4.754.67a1.154,1.154,0,0,0-.358.087c-2.64,1.338-5.565,1.264-8.389,1.7-1.034.163-2.046.532-3.082.589-2.314.13-4.634.125-6.954.168-1.571.03-3.142.079-4.713.065-.939-.008-1.878-.117-2.816-.176-.214-.014-.429-.014-.64-.011q-4.225.045-8.449.095c-2.325.027-4.651.114-6.976.084-2.694-.035-5.386-.144-8.077-.266a39.446,39.446,0,0,0-5.549-.3c-1.636.16-3.109-.41-4.675-.459-1.9-.06-3.793-.223-5.687-.366-1.845-.138-3.682-.339-5.524-.461-1.94-.13-3.883-.168-5.82-.307a18,18,0,0,1-2.081-.418c-1.563-.3-3.126-.589-4.689-.882-.423-.079-.849-.149-1.27-.241-1.072-.228-2.154-.426-3.207-.724a4.819,4.819,0,0,1-1.34-.738c-1.191-.822-2.409-1.617-3.525-2.531a4.476,4.476,0,0,1-1.142-4.119c.266-.914.941-.857,1.579-.977a1.4,1.4,0,0,1,1.606.651,14.36,14.36,0,0,0,1.186,2.086,6.161,6.161,0,0,0,3.544,2.065c1.612.336,3.259.494,4.876.811,1.4.274,2.765.765,4.173.971,1.511.22,3.055.2,4.583.32,1.31.1,2.618.236,3.926.364,1.872.184,3.742.377,5.611.556,1.392.133,2.784.3,4.181.361a25.22,25.22,0,0,1,5.348.535,11.477,11.477,0,0,0,2.765.014c1.758.008,3.519-.011,5.275.052,1.411.049,2.819.252,4.23.285,1.085.027,2.171-.1,3.259-.157.217-.011.434.024.651.024q3.606.008,7.215.011c2.567.008,5.134-.016,7.7.041,1.362.03,2.719.269,4.081.285a39.176,39.176,0,0,0,3.986-.206c1.65-.146,3.3-.309,4.935-.553,1.861-.277,3.7-.727,5.56-.955s3.489-1.492,5.478-1.286a6.1,6.1,0,0,0,2.241-.241,9.263,9.263,0,0,0,1.85-.936,3.384,3.384,0,0,0,.548-.461c.19-.171.369-.353.553-.529a2.741,2.741,0,0,0-.667-.529,5.22,5.22,0,0,1-2.73-2.6,1.235,1.235,0,0,1,.144-1.7A1.52,1.52,0,0,1,178,99.933c.784.488,1.658.825,2.456,1.292a8.217,8.217,0,0,1,3.4,3.913,2.379,2.379,0,0,1-.445,2.776.273.273,0,0,0-.046.252,5.216,5.216,0,0,1,.233,3.253c-.2,2-.928,3.907-.828,5.983.046.923-.684,1.886-1.069,2.825-.689,1.674-1.283,3.394-2.1,5.006-1.275,2.521-2.787,4.922-4.032,7.456a42.784,42.784,0,0,0-1.737,4.764c-.358,1.018-.635,2.07-1.072,3.055s-1.365.513-2.073.459a1.145,1.145,0,0,1-1.2-1.175,10.543,10.543,0,0,1,.277-2.016,37.243,37.243,0,0,1,1.169-4.377,44.118,44.118,0,0,1,1.983-4.119q1.294-2.609,2.61-5.212c.594-1.175,1.289-2.306,1.8-3.516a24.5,24.5,0,0,0,1.357-4.051c.426-1.924.635-3.9.993-5.836a4.546,4.546,0,0,1,.63-1.175" transform="translate(134.059 170.739)" fill="#1a1311"/><path d="M177.565,117.368a1.981,1.981,0,0,0-2.249-.73,16.127,16.127,0,0,0-2.987,1.411c-1.566,1.1-3.411,1.522-5.079,2.358a8.357,8.357,0,0,1-1.81.567c-1.316.312-2.635.64-3.97.857-1.633.266-3.28.491-4.93.608-1.191.087-2.4-.033-3.592-.054-.119,0-.242.035-.361.041-1.329.052-2.659.13-3.991.144-.914.008-1.834-.111-2.749-.106-1.023.005-2.043.136-3.063.13-1.913-.014-3.826-.092-5.739-.128-1.039-.016-2.076.014-3.115,0-.936-.011-1.872-.019-2.806-.071-1.606-.09-3.207-.266-4.813-.3-1.433-.03-2.871.128-4.306.125-1.617-.005-3.234-.09-4.849-.149-1.484-.054-2.966-.111-4.447-.19-2.008-.106-4.018-.228-6.026-.355-1.422-.09-2.852-.133-4.263-.315-1.739-.225-3.421-.76-5.237-.478a10.163,10.163,0,0,1-3.134-.138c-1.693-.277-3.359-.708-5.044-1.047a34.846,34.846,0,0,1-3.9-.752c-1.886-.613-3.861-.838-5.638-1.989a32.152,32.152,0,0,1-3.533-2.222,3.223,3.223,0,0,0-1.481-.686,1.774,1.774,0,0,0-1.842,1.023,1.354,1.354,0,0,0,.092,1.731,12.562,12.562,0,0,0,5.207,3.728c1.112.377,2.187.863,3.3,1.251a19.45,19.45,0,0,0,2.049.545c.741.174,1.487.331,2.236.459a10.617,10.617,0,0,1,1.633.212,27.531,27.531,0,0,0,10.3,1.6,14.075,14.075,0,0,1,2.342.106c1.411.176,2.806.486,4.216.608,1.481.125,2.976.084,4.463.133,1.376.043,2.751.076,4.124.171,1.11.079,2.214.3,3.326.35,1.533.071,3.069.033,4.6.06,2.222.035,4.442.062,6.661.138,1.18.041,2.358.185,3.538.274,1.335.1,2.67.266,4,.279.95.011,1.9-.25,2.849-.266,1.338-.022,2.678.106,4.018.1a19.189,19.189,0,0,1,3.771-.1c1.935.4,3.82-.038,5.725.038,1.2.046,2.409-.081,3.614-.06a24.494,24.494,0,0,0,3.1.182c1.788-.193,3.56-.567,5.326-.914.692-.138,1.357-.412,2.035-.619.236-.071.472-.144.705-.212a1.337,1.337,0,0,0-.241.266c-.033.079-.084.152-.111.228v.005l0,0c-.109.111-.22.217-.339.317a6.382,6.382,0,0,0-.746.659,2.611,2.611,0,0,0-.581,2.743c-.087.133-.176.266-.263.4a1.352,1.352,0,0,0,.347,1.75,1.387,1.387,0,0,0,1.593.038,1.207,1.207,0,0,0,1.186-.347c.073-.092.125-.193.2-.285l.014.011.038-.087a22.834,22.834,0,0,0,1.831-2.721,12.57,12.57,0,0,0,1.026-2.005l1.335-1.72a1.489,1.489,0,0,0,.4-.961,1.77,1.77,0,0,0-.038-.2c.043-.027.09-.052.136-.076.592-.345,1.178-.7,1.766-1.045s1.148-.933,1.758-.982c.906-.076,1.381-.681,1.978-1.126a1.955,1.955,0,0,0,.44-2.214" transform="translate(123.949 195.102)" fill="#1a1311"/><path d="M35.261,77.334c-.366-1.175-.686-2.206-1.012-3.237-.285-.909-.54-1.831-.876-2.721-.491-1.308-1.047-2.591-1.566-3.888a1.454,1.454,0,0,1,.643-2.043c.866-.4,1.468-.114,1.986.893.678,1.321,1.427,2.613,2.073,3.951.364.754.567,1.587.871,2.371a16.412,16.412,0,0,1,.79,1.9c.26,1.05.388,2.133.57,3.2.119.7.185,1.405.361,2.087a1.864,1.864,0,0,0,.583.993c1.194.871,2.445,1.669,3.666,2.5.407.277.8.583,1.2.868.5.355,1,.7,1.5,1.055Q47.526,86.31,49,87.36c1.623,1.161,3.248,2.323,4.859,3.5.421.307.779.7,1.194,1.017,1.427,1.107,2.852,2.219,4.309,3.286a29.47,29.47,0,0,1,2.713,1.853,27.624,27.624,0,0,1,2.317,2.749,28.436,28.436,0,0,0,2.45,2.879,9.083,9.083,0,0,1,2.339,3.7c.779,2.092,1.636,4.157,2.545,6.194.513,1.148.285,3.348-.507,4.07a1.922,1.922,0,0,1-3-.871c-.578-1.8-1.026-3.649-1.718-5.4a30.006,30.006,0,0,0-2.388-4.77c-.673-1.085-1.888-1.853-2.469-2.966a8.577,8.577,0,0,0-2.377-2.662c-1.405-1.148-3.017-2.035-4.477-3.123-1.275-.95-2.415-2.084-3.693-3.031-1.921-1.427-3.915-2.757-5.869-4.143-.3-.209-.516-.529-.8-.757s-.613-.412-.92-.621c-.6-.41-1.2-.822-1.8-1.232q-1.306-.883-2.618-1.756a3.9,3.9,0,0,1-.7-.412c-.659-.689-1.2-1.519-2.271-1.663a.543.543,0,0,1-.374-.252c-.654-1.457-2.176-1.948-3.313-2.8a20.6,20.6,0,0,0-3.951-1.737c-1.034-.469-2.046-.993-3.031-1.56-.282-.163-.431-.556-.73-.966-1.039.187-1.9-.442-2.865-1.069-1.951-1.273-4.027-2.352-6.053-3.508-.885-.5-1.788-.974-2.656-1.5-.431-.26-.393-1.433.016-1.975.762-1,1.612-.876,2.884-.355a14.791,14.791,0,0,0,2.523,1.077,5.38,5.38,0,0,1,2.944,1.514,10.518,10.518,0,0,0,4.075,2.39,30.6,30.6,0,0,1,3.169,1.452c.537.277.961.841,1.517,1a25.474,25.474,0,0,1,4.984,2.423" transform="translate(21.998 111.826)" fill="#1a1311"/><path d="M116.623,98.454c-.985-.768-2-1.506-2.944-2.317a21.428,21.428,0,0,1-1.69-1.747c-.415-.445-.765-.958-1.216-1.359a5.382,5.382,0,0,1-2.011-2.778,8.291,8.291,0,0,0-1.628-2.366,2.424,2.424,0,0,1-.345-.545c-.578-1.614-1.671-3.017-1.875-4.794-.043-.4-.507-.738-.716-1.134-.99-1.88-1.962-3.769-2.93-5.657a.791.791,0,0,1-.079-.364c-.022-1.33-.977-2.19-1.585-3.234a19.394,19.394,0,0,1-1.221-2.6c-.45-1.14-.822-2.309-1.237-3.465-.4-1.123-.89-2.225-1.194-3.375-.174-.659-.464-1.536.377-1.992.724-.393,1.34-.043,1.888.545a8.809,8.809,0,0,1,2.453,4.561.834.834,0,0,0,.2.5c1.028.787,1.11,2,1.49,3.1a13.366,13.366,0,0,0,.971,1.992c1.4,2.531,2.887,5.017,4.195,7.592.8,1.579,1.273,3.324,2.016,4.935a35.318,35.318,0,0,0,1.9,3.253c.423.705.838,1.419,1.3,2.106a12.1,12.1,0,0,0,2.949,3.256,20.673,20.673,0,0,1,3.761,3.72,5.609,5.609,0,0,1,1.671,2.892c.168,1.441-.147,1.959-1.557,2.285-.212.049-.54.068-.605.2-.57,1.164-1.726.825-2.637.993-.491.09-1.061-.279-1.6-.4a3.8,3.8,0,0,0-1.007-.076c-1.316.076-2.629.214-3.945.258-1.351.043-2.705,0-4.059.008a1.979,1.979,0,0,0-.521.179c-.461.147-.974.5-1.378.4-2.1-.5-4.035.285-6.015.651-1.055.193-2.062.64-3.109.89-.684.16-1.4.155-2.1.263a2.309,2.309,0,0,0-.969.3,3.2,3.2,0,0,1-2.371.6.435.435,0,0,0-.187,0c-1.712.54-3.432,1.055-5.131,1.636-1.221.415-2.434.866-3.614,1.392-1.8.8-3.565,1.674-5.34,2.529a1.548,1.548,0,0,1-2.013-.342c-.513-.7.041-1.327.57-1.859a14,14,0,0,1,4.811-2.825c1.9-.784,3.744-1.728,5.657-2.48,1.327-.524,2.749-.8,4.1-1.267.99-.339,1.94-.8,2.909-1.2.084-.035.176-.106.258-.092,2.181.334,4.032-1,6.1-1.21,1.178-.119,2.257-.692,3.557-.377a7.922,7.922,0,0,0,3-.315,15.257,15.257,0,0,1,5.3-.307,14.231,14.231,0,0,0,2.833-.193c1.348-.049,2.7-.035,4.054-.052.117,0,.236-.027.355-.041.052-.09.106-.182.16-.271" transform="translate(124.648 103.754)" fill="#1a1311"/><path d="M174.919,88.706a2.183,2.183,0,0,0-2.876.5,16.026,16.026,0,0,0-1.783,2.55c-1.023,2.165-1.916,4.4-2.833,6.61-.467,1.123-.866,2.276-1.3,3.413-.961,2.483-1.935,4.96-2.884,7.448-.288.749-.48,1.536-.781,2.279-.719,1.761-1.53,3.489-2.2,5.266-.472,1.24-.711,2.567-1.175,3.809-.662,1.774-1.473,3.5-2.152,5.269a32.445,32.445,0,0,0-2.141,6.292c-.326,1.983-1.286,3.856-1.764,5.825-.445,1.823-.605,3.712-.923,5.568-.16.944-.393,1.875-.594,2.814l.247.049c-.38,1.864-.874,3.712-1.1,5.595a14.043,14.043,0,0,1-1.387,4.849,28.7,28.7,0,0,0-2.724,7.964,7.657,7.657,0,0,0-.171,1.378,1.312,1.312,0,0,0,.062.3q-.342,1.026-.681,2.057a23.815,23.815,0,0,0-1.422,5.266,9.743,9.743,0,0,0-.863-1.14c-.147-.247-.3-.491-.431-.746a13.322,13.322,0,0,0-3.427-5.934,1.555,1.555,0,0,0-.157-.1c-.057-.155-.106-.312-.163-.467a25.26,25.26,0,0,1-1.5-3.6,7.9,7.9,0,0,1-.643-.741,10.914,10.914,0,0,1-.86-1.717c-.236-.488-.486-.974-.705-1.473-.673-1.517-1.221-3.1-2.035-4.539-.914-1.612-2.065-3.088-3.123-4.615-.1-.149-.293-.236-.418-.372-.445-.491-.893-.982-1.316-1.49-.551-.665-1.053-1.373-1.625-2.016-1.091-1.221-2.217-2.415-3.329-3.614-.762-.822-1.476-1.7-2.312-2.439a12.867,12.867,0,0,0-4.268-2.751,33.66,33.66,0,0,1-4.3-1.834,10.373,10.373,0,0,0-3.926-.947c-1.324-.122-2.637-.334-3.956-.5-.936-.117-1.872-.266-2.811-.326-.773-.052-1.552.027-2.328.014-1.373-.022-2.746-.068-4.116-.117-1.042-.035-2.084-.092-3.123-.133-1.1-.043-2.2-.141-3.289-.092-1.2.052-2.393.269-3.592.369a2.236,2.236,0,0,0-1.736.757,1.152,1.152,0,0,0-.768.564c-.166.353-.326.711-.456,1.08a4.862,4.862,0,0,0-.228,1.1,2.864,2.864,0,0,0,.562,2.043,2.7,2.7,0,0,0,1.552,1.015,2.532,2.532,0,0,0,1.159-.005,2.146,2.146,0,0,0,1-.589l.217.041c-.673.692-1.292,1.305-1.883,1.94a3.209,3.209,0,0,1-4.073.876c-.133-.906.125-2.021-1.015-2.483-1.419-.57-1.422-1.872-1.636-3.044a1.767,1.767,0,0,1,.328-1.05c.252-.431.616-.8.909-1.207a14.252,14.252,0,0,1,1.424-2.019,20.261,20.261,0,0,1,2.407-1.837,7.222,7.222,0,0,1,3.674-1.775,2.016,2.016,0,0,1,1.462.442,5.938,5.938,0,0,1,.947,1.861,1.726,1.726,0,0,0,2.35,1.294c.567-.109,1.235-.092,1.324-.909a6.089,6.089,0,0,0-1.357-4.211c-.516-.741-1.055-1.465-1.4-1.948a23.994,23.994,0,0,0,1.8-2.5c.475-.893.673-1.932,1.145-2.827,1.085-2.054,1.159-4.29,1.275-6.509a34.445,34.445,0,0,0-.024-5.185,10.065,10.065,0,0,0-1.031-3.807,11.079,11.079,0,0,0-3.147-3.845c-1.3-.92-2.491-1.986-3.755-2.96a7.888,7.888,0,0,0-1.623-1.039,16.528,16.528,0,0,0-1.989-.551,16.181,16.181,0,0,0-3.185-.887c-2.67-.171-5.253-.817-7.877-1.218-1.378-.212-2.762-.377-4.146-.548a21.564,21.564,0,0,1-2.857-.331c-1.191-.317-2.32-.852-3.6-.472a1.2,1.2,0,0,1-.632-.073c-.624-.185-1.232-.421-1.861-.578-.92-.231-1.414.421-1.9,1.02-.442.543-.16,1.053.128,1.544a2.771,2.771,0,0,0,2.238,1.446c1.65.174,3.294.4,4.938.608.635.079,1.275.117,1.9.231,1.552.285,3.09.643,4.645.9,1.492.241,3.006.355,4.5.591,2.141.334,4.284.667,6.4,1.118a7.174,7.174,0,0,1,2.61,1.055,38.308,38.308,0,0,1,3.519,2.99,6.272,6.272,0,0,1,1.568,1.723,19.735,19.735,0,0,1,1.243,3.641,7.865,7.865,0,0,1,.076,2.1c-.014.54-.13,1.077-.155,1.62-.019.429.071.863.046,1.292a14.708,14.708,0,0,1-1.642,6.338c-.695,1.267-1.373,2.624-2.873,3.058a24.45,24.45,0,0,1-3.351.5,3.7,3.7,0,0,0-.545-1.357c-.89-1.15-2.255-1.24-2.919-.22a8.472,8.472,0,0,0,.239,4.189,1.679,1.679,0,0,0,.48.279c.331.16.667.312,1,.464-.817,1.34-2.423,1.574-3.142,2.952a24.708,24.708,0,0,1-2.583,3.332,3.256,3.256,0,0,0-.586,1.134,9.357,9.357,0,0,0,1.53,7.782c-1.875-.513-3.725-1.083-5.606-1.514-1.913-.437-3.856-.741-5.983-1.142-.233-1.083-.57-2.3-.735-3.546a17.236,17.236,0,0,1,.024-2.618c.03-1.481-.084-2.974.974-4.246a29.835,29.835,0,0,0,1.888-2.7,6.575,6.575,0,0,1,2.564-2.111c.977-.518,2.062-.838,3.036-1.362a9.251,9.251,0,0,1,4.425-.882,2.072,2.072,0,0,0,1.5-.613,1.445,1.445,0,0,0-.255-1.8,3.735,3.735,0,0,0-3.468-1.118,13.5,13.5,0,0,0-5.068,1.395,21.242,21.242,0,0,0-6.162,4.206,13.034,13.034,0,0,0-3.419,7.508,18.466,18.466,0,0,0,.592,7.953,7.86,7.86,0,0,0,3.329,4.4c.307.185.583.415,1.115.8a4.166,4.166,0,0,0-3.34,2.247,5.75,5.75,0,0,1-1.267,1.465c-.942.67-2.3.065-3.229.931-.03.03-.166-.079-.255-.087-.478-.049-.958-.076-1.435-.128a3.706,3.706,0,0,1-1.207-.19c-1.517-.76-3.2-1.145-4.461-2.477a9.6,9.6,0,0,1-2.377-2.873c-.353-.871-.928-1.647-1.37-2.485-.947-1.788-2.339-3.411-2.008-5.674.13-.906-.54-1.509-1.169-2.005a1.679,1.679,0,0,0-2.4.657c-.567,1.533-.963,3.08,0,4.645a12.257,12.257,0,0,1,.581,1.568c.244.567.532,1.115.83,1.658a8.919,8.919,0,0,1,.887,1.509,12.126,12.126,0,0,0,2.966,4.382c.562.624,1.085,1.283,1.726,2.046a21.009,21.009,0,0,0-3.242.3c-1.3.323-2.04-.494-2.711-1.216-2.48-2.667-3.677-5.988-4.556-9.448-.247-.979-.564-1.945-.784-2.93-.345-1.557-.564-3.147-1-4.678a1.88,1.88,0,0,0-1.21-1.1c-.3-.065-.92.554-1.1.988a5.406,5.406,0,0,0-.434,2.211c.062,1.783-.412,3.633.548,5.329.065.114-.033.309-.005.459a7.234,7.234,0,0,0,.225,1c.3.933.621,1.856.925,2.787a9.378,9.378,0,0,0,.366,1.251c.784,1.625,1.606,3.229,2.55,5.112a42.459,42.459,0,0,1-5.058-1.764,5.851,5.851,0,0,1-2.16-2.2c-.478-.781-.081-1.959-.958-2.675-.081-.068-.014-.3-.043-.456a6.037,6.037,0,0,0-.309-1.449,11.739,11.739,0,0,1-1.088-5.125c.005-1.167.2-2.333.263-3.506.073-1.452.092-2.906.138-4.36a1.3,1.3,0,0,0-1.384-1.316,2.038,2.038,0,0,0-1.609,1.91A33.313,33.313,0,0,1,24.134,133a11.752,11.752,0,0,0,.062,5.614c.29,1.5.269,3.058,1.191,4.477.418.643.09,1.8.847,2.521.071.065-.005.282-.027.613a29.091,29.091,0,0,1-3.052-1.49,8.691,8.691,0,0,1-2.594-3.449,31.3,31.3,0,0,1-1.628-4.216,10.071,10.071,0,0,1-.727-2.141,21.949,21.949,0,0,1-.054-3.191,35.744,35.744,0,0,1,.222-5.039c.437-2.616,1.091-5.2,1.737-7.776a19.638,19.638,0,0,1,1.1-2.925,1.114,1.114,0,0,0-.716-1.688,4.992,4.992,0,0,1-.624-.315,22.187,22.187,0,0,1,1.112-3.763,35.8,35.8,0,0,1,2.86-4.7c1.039-1.487,2.361-2.787,3.332-4.314.931-1.462,2.45-2.222,3.611-3.4a27.9,27.9,0,0,1,5.429-3.78c1.4-.86,2.952-1.471,4.382-2.287a17.814,17.814,0,0,1,5.937-2.393c1.465-.239,2.909-.648,4.379-.817,1.378-.157,2.781-.084,4.17-.141.923-.038,1.842-.182,2.762-.176a10.307,10.307,0,0,1,3.142.252,3.747,3.747,0,0,0,2.575-.062A2.089,2.089,0,0,0,64.6,87.271c.244-.635-.288-1.066-.754-1.46-1.633-1.381-3.6-1.454-5.587-1.411-.868.016-1.728.2-2.6.26-2.8.193-5.614.228-8.387.6-1.685.222-3.278,1.085-4.96,1.4a17.114,17.114,0,0,0-4.613,2.108c-.83.426-1.571,1.023-2.382,1.492A34.9,34.9,0,0,0,30.8,92.852c-1.962,1.571-4.2,2.827-5.774,4.873-.537.7-1.188,1.311-1.78,1.97a10.514,10.514,0,0,0-1.069,1.243,10.8,10.8,0,0,1-1.093,1.913,19.907,19.907,0,0,0-3.994,6.531,23.6,23.6,0,0,0-.887,3.164c-.347,1.24-.708,2.477-1.058,3.714-.041.149-.033.309-.065.461a6.781,6.781,0,0,1-.271,1.224,2.17,2.17,0,0,0,.79,2.795.6.6,0,0,1,.2.472c-.445,2.249-.933,4.488-1.365,6.74a11.753,11.753,0,0,0-.366,3.036c.136,1.856-.144,3.758.518,5.573.342.931.486,1.937.866,2.849a48.686,48.686,0,0,0,2.078,4.425,17.291,17.291,0,0,0,1.85,2.67c.312.383,1.072.507,1.218.9.372,1,1.278,1.11,2.027,1.487a3.092,3.092,0,0,0,.841.171c-.345.4-.627.76-.936,1.091-1.045,1.129-.855,2.613-1.129,3.956a13.389,13.389,0,0,0-.214,2.469c-.019,1.259,0,2.521.06,3.777.068,1.357.185,2.716.328,4.067a.916.916,0,0,0,.478.624,2.12,2.12,0,0,0,3.05-2.434,8.573,8.573,0,0,1-.1-1.292c.016-1.446.06-2.89.09-4.336.019-.825.019-1.65.049-2.475.016-.535.095-1.069.1-1.6.016-1.055.005-2.111.005-3.34,1.27.605,2.732-.174,4.054.95a12.73,12.73,0,0,0,3.506,1.557,1.824,1.824,0,0,0,.648.052,13.015,13.015,0,0,0,1.783-.014c1.281-.171,2.553-.415,4.016-.659a3.309,3.309,0,0,0,3.107,1.216,3.451,3.451,0,0,1,.974.228,3.28,3.28,0,0,0,1.15.3c1.541-.209,3.077-.467,4.6-.795.372-.081.665-.513,1.007-.768.233-.176.5-.486.73-.461a22.415,22.415,0,0,1,2.456.445c1.886.4,3.769.906,5.644-.049a.918.918,0,0,1,.494-.008,4.069,4.069,0,0,0,3.5-1.015c1.064-1.015,1.644-2.5,3.147-3.112.244-.1.369-.624.448-.974a9.212,9.212,0,0,0,.1-1.338c1.517.421,2.42-.393,3.131-1.571a3.13,3.13,0,0,0,.578.277c1.821.45,3.658.852,5.47,1.34a3.623,3.623,0,0,0,2.689-.26,1,1,0,0,1,.781-.027,6.761,6.761,0,0,0,5.342.092,10.644,10.644,0,0,0,5.055-3.516c.271-.345.819-.572.912-.936a9.167,9.167,0,0,0,.041-2.065c.722,0,1.517-.014,2.312.005.51.014,1.023.144,1.528.111,1.232-.081,2.458-.277,3.693-.331,1.216-.052,2.439-.014,3.658.043a12.048,12.048,0,0,1,2.64.307c1.661.459,3.289,1.05,4.922,1.609a8.575,8.575,0,0,1,2.059.822,15.493,15.493,0,0,1,3.006,2.45c.828.947,2.331.554,2.947,1.731.027.054.19.019.266.065,1.026.605,2.089,1.161,3.055,1.85.391.279.516.906.857,1.286.8.893,1.75,1.666,2.483,2.607a32.194,32.194,0,0,1,2.314,3.535c.418.708,1.1,1.145,1.416,2.032a24.184,24.184,0,0,0,2.48,4.471,60.948,60.948,0,0,0,4.873,7.266.691.691,0,0,1,.182.323c.19,1.343,1.213,2.149,2.005,3.1a1.278,1.278,0,0,0,.469.326,27.873,27.873,0,0,0,2.133,4.306,2.958,2.958,0,0,0,2.523.494,1.349,1.349,0,0,0,1.305.049,1.178,1.178,0,0,0,.331-.393,1.207,1.207,0,0,0,.385-.2,1.375,1.375,0,0,0,.388-.521c.041.027.057.084.1.106a2.446,2.446,0,0,0,3.031-.7,8.871,8.871,0,0,0,1.411-3.033q1.168-3.439,2.03-6.97a1.432,1.432,0,0,0-.4-1.34,16.658,16.658,0,0,1,1.381-4.4,24.586,24.586,0,0,0,2.165-5.4c.144-.695.429-1.367.518-2.068.231-1.8.317-3.617.592-5.408.429-2.795.912-5.581,1.476-8.349.282-1.37.828-2.686,1.2-4.04a37.335,37.335,0,0,0,1.088-4.409c.228-1.538,1.438-2.567,1.739-4.132.334-1.736,1.446-3.318,2.149-5,.32-.765.418-1.62.719-2.4.355-.92.86-1.78,1.229-2.694.6-1.481,1.164-2.976,1.69-4.485.537-1.541.982-3.118,1.53-4.656.2-.57.638-1.053.857-1.617.852-2.211,1.661-4.439,2.483-6.664a9,9,0,0,1,.437-1.207c.483-.893,1.034-1.75,1.525-2.64a4.092,4.092,0,0,0,.212-.811,1.419,1.419,0,0,1,.231-.575c1.042-1.042.705-2.45.993-3.69.035-.144-.152-.41-.307-.521" transform="translate(24.073 144.588)" fill="#1a1311"/><path d="M133.062,26.444c-.73.307-1.454.635-2.2.909a16.43,16.43,0,0,1-1.951.583,1.889,1.889,0,0,1-1.134.024,3.821,3.821,0,0,0-2.442-.231,12.222,12.222,0,0,1-1.737-.114c-1.332.014-2.662.081-3.991.122-.833.024-1.666.052-2.5.06-1.424.011-2.849.035-4.271,0-.795-.019-1.585-.2-2.38-.2-1.24,0-2.483.076-3.723.144-.526.03-1.053.185-1.574.166-.716-.027-1.43-.166-2.144-.252a5.711,5.711,0,0,0-.741-.076c-2.442.008-4.887-.024-7.326.049-2.6.079-5.2.263-7.8.391-2.3.111-4.607.168-6.905.328-1.639.114-3.267.377-4.9.54-.51.052-1.031-.014-1.549-.008-.665.005-1.338-.016-2,.054-1.264.136-2.521.336-3.782.5-1.709.217-3.424.393-5.128.648-.491.073-.933.44-1.424.537-1.932.383-3.877.689-5.809,1.069-1.305.255-2.594.581-3.885.882-.773.182-1.3.011-1.357-.876a35.645,35.645,0,0,0-4.748,1.2,6.3,6.3,0,0,1-3.033.844c-.35-.041-.912-.353-.944-.6-.068-.494-.005-1.3.3-1.5A35.054,35.054,0,0,1,46.142,29.5a10.293,10.293,0,0,1,1.821-.345c1.473-.35,2.928-.8,4.412-1.085,2.361-.456,4.642-1.631,7.152-.86,1.408-.507,2.833.147,4.238-.057,1.745-.25,3.473-.589,5.218-.83,1.042-.144,2.106-.141,3.15-.26,1.237-.141,2.388-.811,3.725-.421.418.122.979-.4,1.487-.434,2.309-.144,4.623-.2,6.932-.317.7-.038,1.384-.222,2.078-.252,1.226-.054,2.453-.041,3.676-.057.185,0,.369-.014.554-.019,2.8-.117,5.606-.29,8.411-.326,1.354-.016,2.705.054,4.067-.057,1.283-.106,2.58-.005,3.872,0,.125,0,.3.049.366-.014,1.085-1.064,2.434-.317,3.644-.521,1.172-.2,2.38-.2,3.571-.293.149-.011.323-.084.442-.03,1.552.681,3.118.326,4.68.081a2.438,2.438,0,0,1,.445-.03c.92.019,1.842.014,2.762.081,1.017.076,2.03.241,3.05.331.507.043,1.023-.019,1.533.008a4.849,4.849,0,0,1,1.772.193c1.329.638,2.586,1.424,3.872,2.152,0,.1-.008.2-.011.3" transform="translate(71.384 39.926)" fill="#1a1311"/><path d="M36.478,50.51c.133-1.8.29-3.6.383-5.408.027-.551-.269-1.137-.163-1.658.342-1.712.8-3.4,1.216-5.093a1.665,1.665,0,0,0,.114-.45c-.068-1.392.874-2.466,1.164-3.744A6.154,6.154,0,0,1,39.7,32.3c1.319-2.154,2.1-4.621,3.842-6.531a2.978,2.978,0,0,0,.638-1.134c.448-1.547,2.106-1.975,2.9-3.2A12.177,12.177,0,0,1,48.674,19.4q2.072-2.076,4.263-4.035c.893-.795,1.891-1.468,2.827-2.217.13-.1.128-.364.255-.475.521-.459,1.061-.893,1.609-1.319.307-.236.64-.442.961-.659.616-.415,1.207-.868,1.85-1.235,1.034-.589,2.1-1.123,3.153-1.671.8-.412,1.6-.8,2.4-1.213.407-.209.8-.44,1.2-.662a2.779,2.779,0,0,1,.545-.3A24.674,24.674,0,0,0,70.2,4.976a10.219,10.219,0,0,1,6.165-.353c.32.079.556.5.83.76a3.29,3.29,0,0,1-.874.54c-1.023.252-2.076.383-3.09.654a9.035,9.035,0,0,0-1.46.727c-.578.279-1.161.548-1.753.8-.906.38-1.826.722-2.727,1.115a5.162,5.162,0,0,0-1.435.792,12.6,12.6,0,0,1-4.222,2.458c-.518.193-.828.893-1.289,1.294-.738.64-1.547,1.2-2.282,1.837-1.069.939-2.1,1.921-3.147,2.887a.963.963,0,0,0-.3.353A3.759,3.759,0,0,1,53.062,20.6a11.216,11.216,0,0,0-2.222,2.211,15.886,15.886,0,0,1-2.917,3.1,1.168,1.168,0,0,0-.385.632c-.233,1.27-1.332,2.035-1.818,3.1-.849,1.861-2.325,3.438-2.518,5.622a14.742,14.742,0,0,1-.8,2.6c-.217.757-.377,1.533-.564,2.3-.583,2.38-1.427,4.71-1.167,7.239a5.478,5.478,0,0,1-.336,1.723c-.187.779-.383,1.56-.608,2.328a8.415,8.415,0,0,1-.608,1.652.872.872,0,0,1-.792.144c-.665-.838-1.661-1.5-1.845-2.751" transform="translate(62.497 7.381)" fill="#1a1311"/><path d="M71.709,3.46c.708.144,1.709.4,2.724.537.605.084,1.243-.092,1.845-.005a13.214,13.214,0,0,1,4.355,1.34,21.371,21.371,0,0,0,3.069.906,16.362,16.362,0,0,1,2.409,1.053,33.721,33.721,0,0,1,5.15,2.928c1.188.936,2.461,1.764,3.625,2.735.971.814,2.106,1.435,3.063,2.263,1.112.961,2.116,2.051,3.161,3.09.7.7,1.386,1.411,2.087,2.111.388.388.814.741,1.183,1.145.475.524.912,1.083,1.365,1.628a2.769,2.769,0,0,1,.353.429c.591,1.1,1.131,2.241,1.766,3.324.912,1.549,1.959,3.023,2.816,4.6a27.027,27.027,0,0,1,1.416,3.435,28.132,28.132,0,0,1,1.758,5.047c.326,1.97,1.5,3.923.521,6.026-.057.125.062.342-.008.45-.157.25-.374.632-.575.638a1.08,1.08,0,0,1-.806-.469c-.613-1.055-1.159-2.154-1.72-3.24a1.041,1.041,0,0,1-.187-.516c.187-1.921-1.392-3.267-1.628-5.077A6.539,6.539,0,0,0,108.4,35.6c-.554-.939-1.465-1.758-1.723-2.757-.464-1.8-2.268-2.833-2.437-4.781-.043-.518-.773-.974-1.175-1.468a12.065,12.065,0,0,1-.727-.971A11.663,11.663,0,0,0,101.3,24.01c-1.5-1.593-2.6-3.519-4.466-4.824a50.407,50.407,0,0,1-4.36-3.869,1.86,1.86,0,0,0-.743-.336c-.551-.149-1.107-.244-1.18-.982-.014-.125-.266-.231-.418-.331-.979-.64-1.975-1.262-2.947-1.921a13.971,13.971,0,0,0-5.435-2.569,3.822,3.822,0,0,1-1.568-.608,13.48,13.48,0,0,0-4.729-1.8,48.917,48.917,0,0,0-6.235-.822c-.06-.008-.136.019-.184-.008-.431-.239-.857-.486-1.283-.733.38-.4.692-.963,1.156-1.15a17.651,17.651,0,0,1,2.8-.6" transform="translate(116.075 5.928)" fill="#1a1311"/><path d="M53.188,38c0-.209.09-.51-.014-.608a4.9,4.9,0,0,1-1.2-3.039A16.342,16.342,0,0,1,52,30.573c.1-1.259.35-2.5.532-3.758.008-.06-.019-.128,0-.185.282-1.093.581-2.181.852-3.278.179-.716.3-1.449.48-2.165a31.883,31.883,0,0,1,1.21-4.55c.5-1.2.19-2.5.776-3.66.7-1.384.83-3.009,1.8-4.292a1.281,1.281,0,0,0,.3-.746c-.033-.673.372-1.047.754-1.514a16.186,16.186,0,0,0,1.167-1.956A2.044,2.044,0,0,1,62.464,3.41a1.638,1.638,0,0,1,.621,2.607,2.559,2.559,0,0,0-.581.882,23.435,23.435,0,0,1-1.628,4.613,21.349,21.349,0,0,0-1.6,4.2,57.193,57.193,0,0,0-1.49,5.937,11.358,11.358,0,0,1-.388,1.131,5.869,5.869,0,0,0-.369,1.039c-.171,1.161-.244,2.336-.453,3.489-.128.719-.483,1.392-.646,2.106-.1.464-.005.969-.062,1.446-.073.624-.217,1.237-.317,1.856-.119.719-.2,1.446-.35,2.157a4.607,4.607,0,0,1-.434,1.085c-.29.57-.605,1.129-.928,1.682a5.617,5.617,0,0,1-.431.554l-.22-.19" transform="translate(88.867 5.617)" fill="#1a1311"/><path d="M70.257,16.615c-.282,1.08-.564,2.16-.906,3.47a14.7,14.7,0,0,1-1.772-5.508c-.087-.99-.342-1.967-.5-2.955-.233-1.416-.383-2.852-.7-4.249-.3-1.321-.76-2.6-1.153-3.9a6.309,6.309,0,0,1-.282-.885c-.092-.676.312-.985.89-.795a3.054,3.054,0,0,1,1.273.868,22.408,22.408,0,0,1,1.424,2,5.624,5.624,0,0,1,1.221-.507,1.123,1.123,0,0,1,1.5.985c.3,1.552.665,3.09,1.023,4.632.38,1.65.828,3.286,1.159,4.944.271,1.357.377,2.746.629,4.108s.6,2.694.876,4.046a18.568,18.568,0,0,1,.431,2.713c.046.9-.1,1.807-.136,2.713a7.9,7.9,0,0,0,.073.906c.046.608-.179.879-.619.752-1-2.268-2.431-4.17-2.811-6.534-.366-2.29-.9-4.556-1.354-6.832Z" transform="translate(111.241 2.972)" fill="#1a1311"/><path d="M83.832,21.823c-.849.627-1.747,1.2-2.537,1.9a7.535,7.535,0,0,1-3.7,1.6q-2.039.4-4.083.768a14.868,14.868,0,0,0-1.761.247,6.861,6.861,0,0,1-4.412-.027,1.7,1.7,0,0,0-.923-.06c-2.507.654-4.973.106-7.451-.206A10.973,10.973,0,0,1,57.4,25.9a9.675,9.675,0,0,1-2.219-.868,1.116,1.116,0,0,1-.32-1.05,2.127,2.127,0,0,1,1.264-.955c1.9-.147,3.807-.087,5.709-.19,1.5-.079,2.987-.345,4.485-.415,1.1-.054,2.214.087,3.324.111a5.046,5.046,0,0,0,1.1-.128c.779-.155,1.552-.347,2.331-.5,3.042-.616,6.137-.475,9.209-.678a6.247,6.247,0,0,1,1.405.228c.046.125.095.25.141.374" transform="translate(93.92 36.352)" fill="#1a1311"/><path d="M84.524,104.819c.342,1.422-.784,2.531-1.248,3.853-.231.651-.551,1.275-.752,1.935-.364,1.2-.646,2.42-1.007,3.617-.163.548-.488,1.05-.64,1.6-.412,1.487-.733,3-1.172,4.48a14.6,14.6,0,0,1-.9,1.916c-.852,1.807-1.647,3.641-2.567,5.41A2,2,0,0,1,73.72,128.7a1.74,1.74,0,0,1-.912-2.035,18,18,0,0,1,2.116-5.318,24.534,24.534,0,0,0,1.593-4.143,22.911,22.911,0,0,1,1.129-3.9c.651-1.221.779-2.711,1.354-3.986.781-1.726,1.769-3.359,2.67-5.03.1-.187.271-.345.353-.537.312-.733.936-1.213,1.606-.9.448.212.629,1,.917,1.538.038.068-.005.179-.022.418" transform="translate(124.676 176.063)" fill="#1a1311"/><path d="M61.4,99.084a9.29,9.29,0,0,1-2.694.5,3.4,3.4,0,0,1-1.9-1.142,12.369,12.369,0,0,1-1.3-2.312c-.014-.027-.005-.068-.024-.09-1.395-1.639-1.11-3.815-1.764-5.7a33.831,33.831,0,0,1-1.392-6.889c-.19-1.522.054-3.074-.564-4.585-.138-.342.475-1.2.947-1.541a1.6,1.6,0,0,1,2.4.738,21.462,21.462,0,0,1,2.219,7.166,24.906,24.906,0,0,0,1.083,4.184c.046.171.231.336.212.491a5.3,5.3,0,0,0,.662,2.5,26.929,26.929,0,0,1,.811,3.405,3.281,3.281,0,0,0,.16.535c.353.855.711,1.709,1.142,2.74" transform="translate(88.652 131.987)" fill="#1a1311"/><path d="M76.669,124.429c.2-.711.347-1.438.592-2.13.578-1.652,1.172-3.3,1.815-4.927.638-1.606,1.343-3.183,2.019-4.77a.676.676,0,0,0,.076-.171c.185-2.48,2.152-4.138,2.93-6.346a1.616,1.616,0,0,1,1.571-1.123c1.218-.054,1.853.743,1.75,2.011a11.584,11.584,0,0,1-1.346,3.649c-.475,1.091-.855,2.222-1.286,3.335-.307.795-.632,1.582-.942,2.377-.535,1.381-1.064,2.768-1.6,4.149a2.044,2.044,0,0,1-.269.594,9.234,9.234,0,0,0-1.726,4.151c-.225.985-1.083,1.37-2.352,1.226-1.026-.114-1.1-.836-1.123-1.614-.005-.125,0-.25,0-.374-.035-.014-.073-.024-.111-.035" transform="translate(131.356 179.825)" fill="#1a1311"/><path d="M50.583,32.88a24.06,24.06,0,0,1-.4-2.871c-.027-1.248.095-2.5.179-3.75s.182-2.472.317-3.7c.081-.722.255-1.433.38-2.152.255-1.457.437-2.933.776-4.374C52.309,14.006,52.857,12,53.462,10a4.129,4.129,0,0,1,1.007-1.566,1.261,1.261,0,0,1,1.08-.2c.2.065.418.608.364.882-.407,2.013-.942,4-1.316,6.021-.3,1.636-.429,3.3-.654,4.949-.252,1.845-.545,3.682-.781,5.53a9.91,9.91,0,0,0-.119,2.314c.128,1.221-.48,2.26-.657,3.4a1.892,1.892,0,0,1-1.8,1.541" transform="translate(85.969 14.044)" fill="#1a1311"/><path d="M72.792,12.761c-.961.263-1.921.521-2.879.787-1.245.345-2.5.659-3.733,1.055-1.093.35-2.162.776-3.229,1.2a5.426,5.426,0,0,0-1.191.673A6.913,6.913,0,0,0,60.406,17.7a4.052,4.052,0,0,0-.73,1.53c-.274,1.226-.45,2.475-.643,3.717a1.146,1.146,0,0,1-1.829.646,3,3,0,0,1-.757-1.308,5.205,5.205,0,0,1-.366-2,5.971,5.971,0,0,1,1.837-3.994c.54-.491.928-1.167,1.506-1.6A12.9,12.9,0,0,1,64.2,12.539c.388-.092.76-.263,1.142-.383,2.179-.676,4.371-1.112,6.607-.269a4.619,4.619,0,0,1,.828.535l.016.339" transform="translate(96.064 19.57)" fill="#1a1311"/><path d="M78.792,3.176a35.46,35.46,0,0,1-3.715.117c-1.473-.1-2.928-.518-4.4-.575-2.787-.109-5.581-.081-8.371-.054-.928.011-1.85.239-2.781.293A6.577,6.577,0,0,1,57.7,2.829a.557.557,0,0,1-.138-1.058A8.335,8.335,0,0,1,61.364.414C62.471.395,63.573.17,64.68.086a19.774,19.774,0,0,1,2.6-.065,29.558,29.558,0,0,1,4.309.418c1.718.358,3.389.944,5.071,1.468a15.349,15.349,0,0,1,1.712.705,2.906,2.906,0,0,1,.472.331l-.049.233" transform="translate(98.047 0.001)" fill="#1a1311"/><path d="M56.516,22.895a1.918,1.918,0,0,1,.545-3.435c.488-.2.944-.488,1.441-.665a1.907,1.907,0,0,1,2.263.792,2.017,2.017,0,0,1-1.392,2.4c.383.247.67.431.958.619.48.312,1.088.578.342,1.248-.106.095-.054.35-.119.513a1.976,1.976,0,0,1-1.365,1.405,15.736,15.736,0,0,1-2.04.61,3.394,3.394,0,0,1-1.774-.358,1.457,1.457,0,0,1-.033-2.241c.38-.3.771-.586,1.175-.893" transform="translate(93.946 32.025)" fill="#1a1311"/><path d="M65.141,22.13a5.655,5.655,0,0,1-1.074-.342c-.722-.418-.781-1-.049-1.327,1.1-.494,2.076-1.5,3.427-1.134.383.1.9.491.952.811.049.3-.374.83-.716,1a25.219,25.219,0,0,1-2.54.988" transform="translate(108.786 32.982)" fill="#1a1311"/><path d="M64.215,12.86c1.867.784,3.175,7.046,1.433,8.959a6.774,6.774,0,0,1-.391-1.612,15.524,15.524,0,0,0-.988-6.441,3.049,3.049,0,0,1-.054-.906" transform="translate(110.013 22.033)" fill="#1a1311"/><path d="M96.783,120.394c1.519-.923,1.359-.971,1.251-2.749a2.883,2.883,0,0,0-1.758-2.57,1.644,1.644,0,0,1-.583-.874c-.312-.9-.581-1.7-1.777-1.869-.627-.087-1.188-.667-1.777-1.026.022-.1.046-.2.071-.3q.985.163,1.97.323c.638.1,1.273.222,1.913.293a11.528,11.528,0,0,0,1.264.024c1.685-.005,3.373.005,5.058-.027a19.667,19.667,0,0,1,3.514-.128c3.112.518,6.222-.03,9.328.166,2.068.128,4.151.035,6.224-.033,1.047-.035,2.087-.25,3.131-.372,1.593-.185,3.191-.323,4.775-.551.624-.09,1.213-.478,1.834-.535,1.381-.122,2.781-.057,4.159-.2,1.172-.117,2.328-.412,3.538-.638-.043.109-.106.29-.187.464-.828,1.78-1.65,3.563-2.488,5.337a4.346,4.346,0,0,1-3.267,2.556c-.752.149-1.468.464-2.217.643a3.6,3.6,0,0,1-1.422.133c-.917-.176-1.519.551-2.3.67-1.319.209-2.659.26-3.991.391-2.173.214-4.344.486-6.523.646-1.563.114-3.137.092-4.708.114-1.435.019-2.871.008-4.306.024-1.883.019-3.763.062-5.646.079-1.7.014-3.389,0-5.085,0" transform="translate(157.859 187.322)" fill="#1a1311"/><path d="M61.3,67.676a11.542,11.542,0,0,1-1.267-.271,39.886,39.886,0,0,1-4-1.46,7.991,7.991,0,0,1-2.209-1.655,1.269,1.269,0,0,1,.03-1.254,1.732,1.732,0,0,1,1.359-.5,15.5,15.5,0,0,1,2.143.849,12.975,12.975,0,0,0,1.587.372c.087.019.2-.049.277-.011,1.663.86,3.169-.011,4.656-.518,1.579-.543,3.044-1.424,4.626-1.962,1.685-.575,3.449-.936,5.185-1.357a11.724,11.724,0,0,1,2.613-.488c1.566-.008,3.134.258,4.694.222a15.814,15.814,0,0,0,2.553-.635c1.039-.209,1.992-.746,3.185-.334a2.888,2.888,0,0,0,2.184-.543c1.433-1,2.795-.423,4.181-.071.141.035.328.581.26.646-.662.635-.928,1.764-2.127,1.753a.821.821,0,0,0-.526.16c-1.389,1.4-3.449.817-5.022,1.723a12.3,12.3,0,0,1-2.754,1.012,5.521,5.521,0,0,1-1.517.087c-.551-.005-1.1-.049-1.658-.087a20.708,20.708,0,0,0-3.91-.22c-1.416.182-3.033-.624-4.257.711a.325.325,0,0,1-.25.106,5.458,5.458,0,0,0-3.324.776c-1.424.624-3.031.849-4.276,1.951a10.064,10.064,0,0,1-2.358,1.169c-.027-.057-.057-.114-.084-.171" transform="translate(91.963 98.635)" fill="#1a1311"/><path d="M90.587,42.25a5.886,5.886,0,0,1,5.98-1.452c1.384.334,1.536,1.563.657,2.678-1.457,1.831-3.443,1.332-5.277,1.381-.518.014-1.05-.643-1.6-1.012-.513.128-1.218.353-1.948.475-1.178.2-1.978-.787-2.6-1.381a9.079,9.079,0,0,0-4.358-2.057,35.072,35.072,0,0,0-5.09-.771,7.186,7.186,0,0,0-1.823.307,16.32,16.32,0,0,0-3.028.532c-1.522.578-3.18.822-4.537,1.9a2.416,2.416,0,0,1-1.951.06,1.38,1.38,0,0,1-.7-1.677c.165-.724.236-1.49,1.224-1.783.868-.258,1.6-.982,2.464-1.229a51.816,51.816,0,0,1,6.2-1.443,20.994,20.994,0,0,1,4.043.038c1.316.057,2.635.144,3.94.29a3.957,3.957,0,0,1,1.4.5,2.266,2.266,0,0,0,1.916.478.576.576,0,0,1,.44.133c1.623,1.229,3.506,2.154,4.659,4.029" transform="translate(110.096 62.85)" fill="#1a1311"/><path d="M53.533,47.7c.152,1.045-.1,1.441-1.186,1.693a9.221,9.221,0,0,1-5.657-.331,1.786,1.786,0,0,1-1.14-1.924c.038-.743.678-1.007,1.351-1.194a5.95,5.95,0,0,1,3.432.5c.887.266,1.362.307,1.8-.768.336-.819,1.289-1.392,1.981-2.059A25.917,25.917,0,0,1,56.184,41.7a14.126,14.126,0,0,1,2.621-1.72,16.371,16.371,0,0,1,7-1.84c.988.011,2.059-.3,2.976.407a.539.539,0,0,0,.448.087c1.693-.762,3.337.241,5.009.119.372-.027.743-.054,1.115-.049a1.242,1.242,0,0,1,1.3,1.275c-.027.7-.342,1.2-1.15,1.188-1.384-.014-2.77.033-4.151-.038-2.222-.114-4.439-.374-6.661-.431a6.894,6.894,0,0,0-2.58.567,12.819,12.819,0,0,0-5.188,3.459,4.194,4.194,0,0,1-.765.516c-.659.475-1.5.743-1.707,1.72-.06.277-.554.459-.914.735" transform="translate(78.034 65.251)" fill="#1a1311"/><path d="M50.573,45.491c-.095-2.909,1.484-4.553,3.424-5.825.6-.391,1.642-.141,2.477-.111a4.229,4.229,0,0,1,4.046,3.2,6.155,6.155,0,0,1-.5,2.4c-.1.388-.258.762-.361,1.15a3.4,3.4,0,0,1-2.336,2.5,7.859,7.859,0,0,1-3.744.453,2.884,2.884,0,0,1-2.548-1.891,10.322,10.322,0,0,1-.461-1.872" transform="translate(86.638 67.586)" fill="#1a1311"/><path d="M76.506,43.687c-.347.733-.76,1.568-1.14,2.42-.453,1.017-1.46,1.066-2.312,1.449a4.388,4.388,0,0,1-3.668-.141,2.879,2.879,0,0,1-1.6-2.209c-.526-1.772.236-3.413.8-5.044a3.9,3.9,0,0,1,2.89-1.769c.434.019.871.054,1.308.038a3.306,3.306,0,0,1,3.413,3.1c.043.673.187,1.338.307,2.154" transform="translate(115.842 65.778)" fill="#1a1311"/><path d="M46.436,57.236c-1.33-.212-1.924-1.245-1.359-2.325.317-.6.437-1.376.893-1.815,1.536-1.481,2.257-3.5,3.546-5.147a36.936,36.936,0,0,1,3.652-4.17,1.766,1.766,0,0,1,1.384-.388c.849.2.931.754.26,1.907-.4.681-1.05,1.221-1.422,1.916-.4.746-.567,1.614-.9,2.4a4.679,4.679,0,0,1-.708.963c-.138.176-.315.328-.437.518-1.085,1.712-2.114,3.468-3.28,5.125-.339.48-1.072.686-1.625,1.017" transform="translate(76.864 74.296)" fill="#1a1311"/><path d="M69.173,65.734c-2.616,0-5.367.019-8.115-.024-.339-.005-.931-.317-.952-.535a1.933,1.933,0,0,1,.4-1.324,2.289,2.289,0,0,1,1.221-.635,40.8,40.8,0,0,1,4.257-.795,9.1,9.1,0,0,1,3.058.092,2.941,2.941,0,0,1,1.693,1.294c.2.35-.288,1.085-.469,1.655.277.258.849.586,1.085,1.077.155.317-.114.9-.307,1.316a1.109,1.109,0,0,1-1.7.315c-.9-.583-.909-1.457-.171-2.437" transform="translate(102.964 106.801)" fill="#1a1311"/><path d="M60.424,54.305c1.115-.326,2.236-.632,3.343-.977,1.422-.442,2.765-.491,3.842.73a1.1,1.1,0,0,1,.217.874,2.159,2.159,0,0,1-1.907,1.84c-1.642.209-3.256.773-4.895.841a7.792,7.792,0,0,1-3.324-.836,1.119,1.119,0,0,1,.179-2.038A23.761,23.761,0,0,1,60.3,53.9c.043.136.084.269.128.4" transform="translate(97.859 90.877)" fill="#1a1311"/><path d="M68.356,52.412a10.945,10.945,0,0,1,1.131,2.005,1.38,1.38,0,0,1-1.169,1.7,7.71,7.71,0,0,1-4.713-.6,2.041,2.041,0,0,1-1.091-1.408c-.079-.714.537-1.224,1.319-1.3,1.064-.1,2.133-.157,3.2-.244.369-.027.735-.084,1.324-.155" transform="translate(107.093 89.797)" fill="#1a1311"/><path d="M54.788,62.722a11.014,11.014,0,0,1,.3,2.16,5.086,5.086,0,0,1-.575,1.761c-.548,1.2-.806,1.213-1.7.225a3.265,3.265,0,0,1-.974-2.678,8.635,8.635,0,0,1,.231-2.409c.206-.556.3-1.066.955-1.216a1.314,1.314,0,0,1,1.465.757,8.876,8.876,0,0,1,.575,1.335l-.277.065" transform="translate(88.788 103.703)" fill="#1a1311"/><path d="M57.648,58.74c.041-2.141.564-2.808,2.19-2.784a1.989,1.989,0,0,1,1.69,1.785c-.079,1.671-.914,2.6-2.35,2.613a1.457,1.457,0,0,1-1.53-1.614" transform="translate(98.767 95.868)" fill="#1a1311"/><path d="M69.444,59.722c.054-1.487.35-1.848,1.386-1.916a1.566,1.566,0,0,1,1.837,1.544,8.352,8.352,0,0,1,.111,1.853,1.362,1.362,0,0,1-1.49,1.264,1.419,1.419,0,0,1-1.5-1.156c-.119-.611-.263-1.213-.347-1.59" transform="translate(118.978 99.03)" fill="#1a1311"/><path d="M62.973,66.578c-.334.616-.524,1.514-1.036,1.769-.545.271-1.4-.033-2.108-.168-.163-.033-.355-.4-.374-.621a13.483,13.483,0,0,1-.027-2.04c.046-.646,1-1.262,1.842-1.262A1.252,1.252,0,0,1,62.7,65.514c.035.309.035.624.049.936.073.041.147.084.22.128" transform="translate(101.769 110.087)" fill="#1a1311"/><path d="M54.749,59.354c-.157,1.134-.244,2.133-.461,3.1-.068.309-.478.765-.73.765-.35,0-.944-.32-1-.6a15.771,15.771,0,0,1-.418-3.432c.005-.9.657-1.264,1.671-1.156.887.095.928.781.939,1.316" transform="translate(89.329 99.403)" fill="#1a1311"/><path d="M61.92,65.8a1.442,1.442,0,0,1,1.264-1.69c1.262-.095,1.924.545,2.043,1.978.076.9-.38,1.367-1.392,1.422-1.462.081-1.826-.244-1.916-1.709" transform="translate(106.079 109.821)" fill="#1a1311"/><path d="M56.071,60.443c-.068-.027-.388-.057-.472-.214a2.541,2.541,0,0,1,.307-2.575,2.024,2.024,0,0,1,1.243-.743c.657-.147.969.228.855.933-.087.548-.095,1.107-.168,1.658-.133.969-.923.828-1.764.942" transform="translate(94.85 97.449)" fill="#1a1311"/><path d="M53.428,60.474a20.647,20.647,0,0,1,1.311-2.4,1.634,1.634,0,0,1,1.159-.467c.412-.014.752.214.461.8a12.624,12.624,0,0,0-.434,1.46,5.645,5.645,0,0,1-.651,1.462.936.936,0,0,1-.906.111,4.482,4.482,0,0,1-.939-.963" transform="translate(91.538 98.695)" fill="#1a1311"/><path d="M65.072,57.306a1.279,1.279,0,0,1-1.4,1.386c-.594.005-1.557-.752-1.566-1.232-.016-.993.513-1.785,1.2-1.8,1.24-.022,1.707.415,1.758,1.644" transform="translate(106.41 95.363)" fill="#1a1311"/><path d="M71.793,60.836a.99.99,0,0,1,.833,1.644,5.884,5.884,0,0,1-1.433,1.395c-.472.342-1.045-.176-1.172-1.012a1.994,1.994,0,0,1,1.772-2.027" transform="translate(119.944 104.229)" fill="#1a1311"/><path d="M65.6,56.009A1.729,1.729,0,0,1,67,58a.53.53,0,0,1-.361.25c-.689.106-1.785-1.134-1.631-1.826.062-.269.144-.532.214-.8.128.13.258.258.385.385" transform="translate(111.346 95.3)" fill="#1a1311"/><path d="M67.37,56.463c.429-.307.662-.605.833-.573.491.095,1.1.152,1.1.89.005.535-.3.942-.776.787-.4-.13-.676-.619-1.161-1.1" transform="translate(115.424 95.752)" fill="#1a1311"/></g></svg>